<svg xmlns="http://www.w3.org/2000/svg" viewBox="0 0 310.42 61.37"><path d="m61.6,23.46c-1.36-.78-2.84-1.13-4.3-1.1,1.12-2.9,0-6.28-2.78-7.88-.69-.4-1.44-.66-2.21-.78.02-.04.05-.07.07-.11,2.3-3.98.93-9.09-3.05-11.39-3.98-2.3-9.09-.93-11.39,3.05-.02.04-.04.08-.06.12-.48-.6-1.07-1.12-1.78-1.52-1.49-.86-3.22-1.09-4.88-.64-1.33.36-2.48,1.12-3.33,2.17-.71-1.28-1.75-2.39-3.11-3.17-3.98-2.3-9.09-.93-11.39,3.05-1.11,1.93-1.41,4.17-.83,6.32.2.76.51,1.47.9,2.12-.76.12-1.5.37-2.21.78-2.78,1.6-3.9,4.97-2.79,7.87-2.92-.04-5.79,1.45-7.35,4.16C0,28.44-.29,30.69.29,32.84s1.96,3.95,3.88,5.06c1.28.74,2.71,1.12,4.15,1.12.05,0,.1,0,.14,0-.48,1.26-.57,2.63-.21,3.96.44,1.66,1.51,3.05,3,3.91.7.41,1.45.66,2.21.78-.02.04-.05.07-.07.11-1.11,1.93-1.41,4.17-.83,6.33.58,2.15,1.96,3.95,3.88,5.06,1.31.76,2.74,1.12,4.15,1.12,2.88,0,5.69-1.5,7.23-4.17.02-.04.04-.08.06-.12.49.6,1.09,1.12,1.78,1.52,1.01.58,2.12.86,3.21.86,1.91,0,3.77-.85,5.01-2.39.71,1.28,1.75,2.39,3.11,3.17,1.28.74,2.71,1.12,4.15,1.12.72,0,1.45-.1,2.17-.29,2.15-.58,3.95-1.96,5.06-3.88,1.56-2.71,1.43-5.93-.07-8.44.76-.12,1.51-.37,2.21-.78,1.49-.86,2.55-2.25,3-3.91.36-1.33.27-2.7-.21-3.96.04,0,.08,0,.12,0,.72,0,1.45-.1,2.17-.29,2.15-.58,3.95-1.96,5.06-3.88,2.3-3.98.93-9.09-3.05-11.39Zm-10.61,14.3c0,2.29-1.33,4.27-3.25,5.23-.87-1.83-.2-4.06,1.59-5.09.51-.3,1.07-.47,1.65-.51,0,.12.02.25.02.38ZM15.56,20.68c.6-1.04,1.47-1.81,2.48-2.3.4.84.49,1.79.24,2.7-.27,1.02-.92,1.86-1.83,2.39-.52.3-1.08.47-1.66.51-.08-1.14.19-2.28.77-3.3Zm20.55,25.69c-2.77-1.6-6.25-.89-8.21,1.52-1.07-1.76-1.17-4.04-.07-5.95.78-1.35,2.04-2.32,3.54-2.72.5-.13,1.01-.2,1.52-.2,1.01,0,2.01.27,2.91.78,2.79,1.61,3.75,5.18,2.14,7.97-.02.04-.05.07-.07.11-.48-.59-1.07-1.11-1.77-1.51Zm-18.41-10.63c-.69-.4-1.43-.65-2.19-.78.02-.04.04-.07.06-.11,1.08-1.87,3.05-2.92,5.06-2.92.99,0,1.99.25,2.91.78,2.79,1.61,3.74,5.18,2.14,7.97-1.1,1.91-3.12,2.96-5.18,2.91,1.1-2.9-.02-6.26-2.79-7.86Zm2.79-17.97s.08,0,.12,0c0,0,.01,0,.02,0,.99,0,1.99.25,2.9.78,2.79,1.61,3.74,5.18,2.14,7.97-.78,1.35-2.04,2.32-3.54,2.72-1.5.4-3.08.2-4.43-.58-.94-.54-1.69-1.32-2.19-2.25.76-.12,1.5-.38,2.19-.77,1.49-.86,2.55-2.25,3-3.91.36-1.32.27-2.69-.21-3.95Zm9.18-2.77c1.01.58,2.12.86,3.21.86,1.9,0,3.75-.85,5-2.38.28.47.5.98.65,1.52.4,1.51.2,3.08-.58,4.43-1.61,2.79-5.19,3.74-7.97,2.14-2.79-1.61-3.74-5.18-2.14-7.97.02-.04.05-.07.07-.1.49.6,1.08,1.11,1.77,1.51Zm15.48,2.76s.03,0,.05,0c.03,0,.06,0,.09,0-.48,1.26-.56,2.63-.21,3.95.44,1.66,1.51,3.05,3,3.91.7.4,1.44.66,2.19.78-.02.04-.04.07-.06.11-.78,1.35-2.04,2.32-3.54,2.72-1.5.4-3.08.2-4.43-.58-1.35-.78-2.32-2.04-2.72-3.54-.4-1.51-.2-3.08.58-4.43s2.04-2.32,3.54-2.72c.49-.13.98-.19,1.47-.2,0,0,.01,0,.02,0Zm-8.31,19.77c-1.88-1.02-4.04-1.28-6.11-.72-.63.17-1.23.42-1.8.72-.08-2.71-1.48-5.32-3.94-6.84,1.16-.72,2.14-1.71,2.84-2.93.71-1.24,1.07-2.58,1.11-3.92,1.25.67,2.6,1,3.93,1s2.75-.35,3.96-1c.02.64.11,1.28.27,1.91.56,2.07,1.86,3.81,3.68,4.93-2.31,1.43-3.87,3.95-3.95,6.84Zm8.45,6.07s-.08,0-.13,0c-3.22,0-5.84-2.62-5.84-5.84s2.61-5.82,5.82-5.83c0,0,0,0,0,0,0,0,.02,0,.02,0,2.2,0,4.11,1.23,5.1,3.03-.76.12-1.5.38-2.19.78-2.77,1.6-3.89,4.96-2.79,7.86Zm5.69-19.63c-.56-.05-1.12-.21-1.65-.51-.91-.53-1.56-1.37-1.83-2.39-.24-.91-.15-1.85.24-2.7.11.06.23.1.34.17,1.98,1.15,3.03,3.29,2.9,5.43Zm-20.06-11.14c-.51-.3-.94-.7-1.27-1.17.52-.35,1.1-.62,1.73-.78.5-.13,1.01-.2,1.52-.2,1.01,0,2.01.27,2.91.78.11.06.21.14.32.21-1.15,1.67-3.42,2.2-5.2,1.17Zm-16.13,24.56c.57.05,1.14.21,1.65.51,1.79,1.03,2.45,3.26,1.59,5.09-.11-.06-.23-.11-.34-.17-1.35-.78-2.32-2.04-2.72-3.54-.17-.62-.22-1.26-.18-1.88Zm18.1,10.61c.67,0,1.34.17,1.96.53.52.3.94.71,1.26,1.17-1.79,1.19-4.17,1.35-6.15.2-.11-.06-.21-.13-.31-.2.75-1.09,1.98-1.7,3.24-1.7Zm21.82-25.99c-.31.54-.74.98-1.23,1.3-.09-2.7-1.49-5.29-3.93-6.8.23-.11.47-.2.73-.27.34-.09.68-.14,1.03-.14.68,0,1.36.18,1.96.53,1.88,1.09,2.53,3.5,1.44,5.38Zm-14.6-15.52c1.08-1.87,3.05-2.92,5.06-2.92.99,0,1.99.25,2.91.78,2.79,1.61,3.74,5.18,2.14,7.97-.78,1.35-2.04,2.32-3.54,2.72-1.5.4-3.08.2-4.43-.58-1.35-.78-2.32-2.04-2.72-3.54-.4-1.51-.2-3.08.58-4.43Zm-8.24-.89c.34-.09.68-.14,1.02-.14.68,0,1.36.18,1.96.53,1.18.68,1.87,1.89,1.96,3.15-1.87-1-4.02-1.26-6.09-.71-.62.17-1.21.41-1.77.7.04-.59.21-1.18.52-1.71.53-.91,1.37-1.56,2.39-1.83Zm-16.31.89c1.61-2.79,5.19-3.74,7.97-2.14,2.79,1.61,3.74,5.18,2.14,7.97-.78,1.35-2.04,2.32-3.54,2.72-1.5.4-3.08.2-4.43-.58-1.35-.78-2.32-2.04-2.72-3.54-.4-1.51-.2-3.08.58-4.43Zm-3.05,10.14c1.18-.68,2.56-.68,3.7-.12-1.13.7-2.11,1.68-2.82,2.91-.7,1.21-1.07,2.54-1.12,3.89-.49-.33-.91-.77-1.21-1.3-1.08-1.88-.44-4.29,1.44-5.38Zm-7.09,19.09c-1.35-.78-2.32-2.04-2.72-3.54-.4-1.51-.2-3.08.58-4.43,1.08-1.87,3.04-2.92,5.06-2.92.99,0,1.99.25,2.91.78,2.79,1.61,3.74,5.18,2.14,7.97-.78,1.35-2.04,2.32-3.54,2.72-1.5.4-3.08.2-4.43-.58Zm5.25,6.6c-.27-1.02-.13-2.08.39-2.99.31-.53.73-.97,1.22-1.3.02.63.11,1.26.27,1.88.55,2.06,1.85,3.79,3.66,4.92-1.14.56-2.53.56-3.71-.12-.91-.53-1.56-1.37-1.83-2.39Zm14.99,12.53c-1.61,2.79-5.18,3.75-7.97,2.14-1.35-.78-2.32-2.04-2.72-3.54-.4-1.51-.2-3.08.58-4.43,1.61-2.79,5.19-3.74,7.97-2.14,2.79,1.61,3.74,5.19,2.14,7.97Zm5.25.49c-.91-.53-1.56-1.37-1.83-2.39-.07-.25-.11-.51-.13-.76,1.24.67,2.59.99,3.91.99,1.37,0,2.73-.34,3.94-.99-.04.58-.2,1.17-.51,1.71-1.09,1.88-3.5,2.53-5.38,1.44Zm19.3-.49c-.78,1.35-2.04,2.32-3.54,2.72-1.51.4-3.08.2-4.43-.58-2.79-1.61-3.75-5.19-2.14-7.97s5.19-3.75,7.97-2.14c2.79,1.61,3.74,5.18,2.14,7.97Zm4.89-12.53c-.27,1.02-.92,1.86-1.83,2.39-1.18.68-2.57.68-3.72.12,2.29-1.43,3.84-3.93,3.93-6.8.5.33.92.77,1.23,1.31.53.91.67,1.97.39,2.99Zm7.39-8.73c-.78,1.35-2.04,2.32-3.54,2.72-1.5.4-3.08.2-4.43-.58-1.35-.78-2.32-2.04-2.72-3.54-.4-1.51-.2-3.08.58-4.43,1.08-1.87,3.04-2.92,5.06-2.92.99,0,1.99.25,2.91.78,2.79,1.61,3.74,5.18,2.14,7.97Z" style="fill:#231916; stroke-width:0px;"/><path d="m87.89,14.88c1.22,0,2.34.11,3.35.32,1.01.22,1.87.57,2.59,1.06.72.49,1.28,1.15,1.67,1.96.4.82.59,1.82.59,3.02,0,1.3-.29,2.38-.88,3.24-.59.86-1.46,1.57-2.61,2.12,1.58.46,2.77,1.25,3.55,2.39.78,1.14,1.17,2.51,1.17,4.12,0,1.3-.25,2.42-.76,3.37s-1.18,1.72-2.03,2.32-1.82,1.04-2.92,1.33-2.21.43-3.37.43h-12.46V14.88h12.1Zm-.72,10.4c1.01,0,1.84-.24,2.48-.72.65-.48.97-1.26.97-2.34,0-.6-.11-1.09-.32-1.48s-.5-.68-.86-.9-.77-.37-1.24-.45c-.47-.08-.95-.13-1.46-.13h-5.29v6.01h5.72Zm.32,10.91c.55,0,1.08-.05,1.58-.16.5-.11.95-.29,1.33-.54s.69-.59.92-1.03c.23-.43.34-.98.34-1.66,0-1.32-.37-2.26-1.12-2.83-.74-.56-1.73-.85-2.95-.85h-6.16v7.06h6.05Z" style="stroke-width:0px;"/><path d="m99.81,19.09v-4.21h5.11v4.21h-5.11Zm5.11,2.88v18.61h-5.11v-18.61h5.11Z" style="stroke-width:0px;"/><path d="m108.12,27.25c.46-1.21,1.1-2.24,1.94-3.1.84-.85,1.85-1.51,3.02-1.98s2.5-.7,3.96-.7,2.79.23,3.98.7,2.2,1.13,3.04,1.98c.84.85,1.49,1.88,1.94,3.1.46,1.21.68,2.56.68,4.05s-.23,2.83-.68,4.03c-.46,1.2-1.1,2.23-1.94,3.08-.84.85-1.85,1.51-3.04,1.96-1.19.46-2.51.68-3.98.68s-2.79-.23-3.96-.68c-1.18-.46-2.18-1.11-3.02-1.96-.84-.85-1.49-1.88-1.94-3.08s-.68-2.54-.68-4.03.23-2.84.68-4.05Zm4.64,6.23c.14.71.39,1.34.74,1.91.35.56.81,1.01,1.39,1.35s1.3.5,2.16.5,1.59-.17,2.18-.5c.59-.34,1.06-.79,1.4-1.35.35-.56.59-1.2.74-1.91.14-.71.22-1.43.22-2.18s-.07-1.48-.22-2.2c-.14-.72-.39-1.36-.74-1.91s-.82-1-1.4-1.35c-.59-.35-1.31-.52-2.18-.52s-1.58.17-2.16.52c-.58.35-1.04.8-1.39,1.35s-.59,1.19-.74,1.91c-.14.72-.22,1.45-.22,2.2s.07,1.47.22,2.18Z" style="stroke-width:0px;"/><path d="m146.1,21.74c-.34-.54-.76-1.01-1.26-1.42-.5-.41-1.07-.73-1.71-.95-.64-.23-1.3-.34-2-.34-1.27,0-2.35.25-3.24.74-.89.49-1.61,1.15-2.16,1.98-.55.83-.95,1.77-1.21,2.83-.25,1.06-.38,2.15-.38,3.28s.13,2.13.38,3.15.65,1.94,1.21,2.75c.55.82,1.27,1.47,2.16,1.96.89.49,1.97.74,3.24.74,1.73,0,3.08-.53,4.05-1.58.97-1.06,1.57-2.45,1.78-4.18h5.47c-.14,1.61-.52,3.06-1.12,4.36-.6,1.3-1.39,2.4-2.38,3.31-.98.91-2.14,1.61-3.46,2.09-1.32.48-2.77.72-4.36.72-1.97,0-3.74-.34-5.31-1.03-1.57-.68-2.9-1.62-3.98-2.83-1.08-1.2-1.91-2.61-2.48-4.23-.58-1.62-.86-3.37-.86-5.24s.29-3.7.86-5.35c.58-1.64,1.4-3.08,2.48-4.3,1.08-1.22,2.41-2.18,3.98-2.88,1.57-.7,3.34-1.04,5.31-1.04,1.42,0,2.75.2,4.01.61,1.26.41,2.39,1,3.38,1.78,1,.78,1.82,1.75,2.47,2.9.65,1.15,1.06,2.47,1.22,3.96h-5.47c-.1-.65-.31-1.24-.65-1.78Z" style="stroke-width:0px;"/><path d="m160.07,14.88v25.7h-5.11V14.88h5.11Z" style="stroke-width:0px;"/><path d="m175.77,40.59v-2.59h-.11c-.65,1.08-1.49,1.86-2.52,2.34-1.03.48-2.09.72-3.17.72-1.37,0-2.49-.18-3.37-.54-.88-.36-1.57-.87-2.07-1.53-.5-.66-.86-1.46-1.06-2.41s-.31-2-.31-3.15v-11.45h5.11v10.51c0,1.54.24,2.68.72,3.44.48.76,1.33,1.13,2.56,1.13,1.39,0,2.4-.41,3.02-1.24.62-.83.94-2.19.94-4.09v-9.76h5.11v18.61h-4.86Z" style="stroke-width:0px;"/><path d="m188.69,14.88v9.36h.07c.62-.96,1.47-1.66,2.54-2.11,1.07-.44,2.18-.67,3.33-.67.94,0,1.86.19,2.77.58s1.73.97,2.47,1.76c.73.79,1.33,1.81,1.78,3.04.46,1.24.68,2.71.68,4.41s-.23,3.17-.68,4.41c-.46,1.24-1.05,2.25-1.78,3.04-.73.79-1.55,1.38-2.47,1.76-.91.38-1.84.58-2.77.58-1.37,0-2.59-.22-3.67-.65-1.08-.43-1.9-1.16-2.45-2.2h-.07v2.38h-4.86V14.88h5.11Zm8.28,14.15c-.17-.72-.43-1.36-.79-1.91s-.81-.99-1.35-1.31c-.54-.32-1.19-.49-1.96-.49s-1.39.16-1.94.49c-.55.32-1.01.76-1.37,1.31s-.62,1.19-.79,1.91c-.17.72-.25,1.48-.25,2.27s.08,1.51.25,2.23c.17.72.43,1.36.79,1.91.36.55.82.99,1.37,1.31.55.32,1.2.49,1.94.49s1.42-.16,1.96-.49.99-.76,1.35-1.31c.36-.55.62-1.19.79-1.91.17-.72.25-1.46.25-2.23s-.08-1.55-.25-2.27Z" style="stroke-width:0px;"/><path d="m212.23,19.63v-4.75h21.06v4.75h-7.7v20.95h-5.65v-20.95h-7.7Z" style="stroke-width:0px;"/><path d="m230.88,27.25c.46-1.21,1.1-2.24,1.94-3.1.84-.85,1.85-1.51,3.02-1.98s2.5-.7,3.96-.7,2.79.23,3.98.7,2.2,1.13,3.04,1.98c.84.85,1.49,1.88,1.94,3.1.46,1.21.68,2.56.68,4.05s-.23,2.83-.68,4.03c-.46,1.2-1.1,2.23-1.94,3.08-.84.85-1.85,1.51-3.04,1.96-1.19.46-2.51.68-3.98.68s-2.79-.23-3.96-.68c-1.18-.46-2.18-1.11-3.02-1.96-.84-.85-1.49-1.88-1.94-3.08s-.68-2.54-.68-4.03.23-2.84.68-4.05Zm4.64,6.23c.14.71.39,1.34.74,1.91.35.56.81,1.01,1.39,1.35s1.3.5,2.16.5,1.59-.17,2.18-.5c.59-.34,1.06-.79,1.4-1.35.35-.56.59-1.2.74-1.91.14-.71.22-1.43.22-2.18s-.07-1.48-.22-2.2c-.14-.72-.39-1.36-.74-1.91s-.82-1-1.4-1.35c-.59-.35-1.31-.52-2.18-.52s-1.58.17-2.16.52c-.58.35-1.04.8-1.39,1.35s-.59,1.19-.74,1.91c-.14.72-.22,1.45-.22,2.2s.07,1.47.22,2.18Z" style="stroke-width:0px;"/><path d="m257.41,14.88v13.79l6.44-6.7h6.05l-7.02,6.84,7.81,11.77h-6.19l-5.11-8.32-1.98,1.91v6.41h-5.11V14.88h5.11Z" style="stroke-width:0px;"/><path d="m278.44,46.13c-.98.65-2.35.97-4.1.97-.53,0-1.05-.02-1.57-.05-.52-.04-1.04-.08-1.57-.13v-4.21c.48.05.97.1,1.48.14.5.05,1.01.06,1.51.04.67-.07,1.17-.34,1.49-.79.32-.46.49-.96.49-1.51,0-.41-.07-.79-.22-1.15l-6.52-17.46h5.44l4.21,12.74h.07l4.07-12.74h5.29l-7.78,20.92c-.55,1.51-1.32,2.59-2.3,3.24Z" style="stroke-width:0px;"/><path d="m289.42,27.25c.46-1.21,1.1-2.24,1.94-3.1.84-.85,1.85-1.51,3.02-1.98s2.5-.7,3.96-.7,2.79.23,3.98.7,2.2,1.13,3.04,1.98c.84.85,1.49,1.88,1.94,3.1.46,1.21.68,2.56.68,4.05s-.23,2.83-.68,4.03c-.46,1.2-1.1,2.23-1.94,3.08-.84.85-1.85,1.51-3.04,1.96-1.19.46-2.51.68-3.98.68s-2.79-.23-3.96-.68c-1.18-.46-2.18-1.11-3.02-1.96-.84-.85-1.49-1.88-1.94-3.08s-.68-2.54-.68-4.03.23-2.84.68-4.05Zm4.64,6.23c.14.71.39,1.34.74,1.91.35.56.81,1.01,1.39,1.35s1.3.5,2.16.5,1.59-.17,2.18-.5c.59-.34,1.06-.79,1.4-1.35.35-.56.59-1.2.74-1.91.14-.71.22-1.43.22-2.18s-.07-1.48-.22-2.2c-.14-.72-.39-1.36-.74-1.91s-.82-1-1.4-1.35c-.59-.35-1.31-.52-2.18-.52s-1.58.17-2.16.52c-.58.35-1.04.8-1.39,1.35s-.59,1.19-.74,1.91c-.14.72-.22,1.45-.22,2.2s.07,1.47.22,2.18Z" style="stroke-width:0px;"/></svg>