<?xml version="1.0" encoding="utf-8"?>
<!-- Generator: Adobe Illustrator 22.1.0, SVG Export Plug-In . SVG Version: 6.00 Build 0)  -->
<svg version="1.1" id="Layer_1" xmlns="http://www.w3.org/2000/svg" xmlns:xlink="http://www.w3.org/1999/xlink" x="0px" y="0px"
	 viewBox="0 0 150 61" enable-background="new 0 0 150 61" xml:space="preserve">
<polyline fill="#F4CD00" points="31.43,40.96 32.93,40.96 32.93,60.96 29.43,60.96 29.43,40.96 31.43,40.96 "/>
<polyline fill="#EC1C24" points="31.43,20.86 32.93,20.86 32.93,40.96 29.43,40.96 29.43,20.86 31.43,20.86 "/>
<path d="M14.1,8.3c0.03-0.22,0.04-0.46,0.04-0.69c0-0.13,0-0.28-0.01-0.45c1.99-0.03,3.74-1.46,3.74-3.11
	c0-0.84-0.55-1.47-0.86-1.85c0.07-0.01,0.14-0.03,0.21-0.05c0.29,0.25,1.12,1.16,1.12,2.3C18.34,6.42,16.36,8.26,14.1,8.3
	 M12.09,1.4c-0.04-0.22-0.12-0.42-0.25-0.59c0.01-0.2,0.09-0.39,0.42-0.24c-0.18,0.18-0.04,0.5-0.04,0.5s0.36-0.17,0.29-0.4
	C13.04,0.79,12.65,1.51,12.09,1.4 M11.63,2.41c-0.07-0.3-0.22-0.6-0.42-0.83c-0.18-0.21-0.47-0.45-0.86-0.45
	c-0.18,0-0.48,0.08-0.67,0.16C9.61,1.17,9.47,0.85,9.47,0.71c0-0.14,0.25-0.29,0.72-0.29c1.03,0,1.65,0.47,1.65,1.25
	C11.84,1.94,11.73,2.19,11.63,2.41 M14.28,15.71c0.12,0,0.18,0.02,0.25,0.04c0.3,0.81,1.44,2.33,1.49,2.4l0.01,0.01l0.02,0
	c0.28-0.04,1-0.15,1.6-0.15h0.01c0.07,0,0.14,0,0.19,0.05c0.04,0.04,0.06,0.11,0.06,0.2c0,0.15-0.06,0.4-0.14,0.51
	c-0.21-0.23-0.55-0.33-1.1-0.33c-0.16,0-0.36,0.05-0.46,0.08l-0.04,0.01l-0.05,0.01l0.32,0.32c0.49,0.48,0.91,0.9,0.91,1.18
	c0,0.17-0.16,0.39-0.31,0.48c-0.03-0.51-0.55-1.19-1.05-1.58l-0.04-0.03l-0.01,0.18c-0.01,0.12-0.02,0.31-0.02,0.5
	c0,0.97-0.1,1.12-0.44,1.12c-0.05,0-0.13-0.01-0.18-0.03c0.19-0.23,0.26-0.55,0.26-1.09l0-0.25l0-0.2c0-0.22,0.02-0.39,0.04-0.52
	l0.01-0.07l-0.05-0.01c-0.16-0.02-0.45-0.06-0.67-0.06c-0.48,0-0.81,0.04-1.04,0.27c-0.16-0.13-0.32-0.34-0.32-0.48
	c0-0.2,0.13-0.22,0.29-0.22c0.08,0,0.16,0.01,0.27,0.03c0.21,0.03,0.52,0.08,1.16,0.08h0.04l-0.01-0.04
	c-0.16-0.47-0.61-1.14-1.32-2.01C13.99,15.87,14.05,15.71,14.28,15.71 M8.1,18.11l-0.01,0.04h0.04c0.64,0,0.95-0.05,1.16-0.08
	c0.11-0.01,0.19-0.03,0.27-0.03c0.17,0,0.29,0.02,0.29,0.22c0,0.14-0.16,0.36-0.32,0.48c-0.24-0.22-0.56-0.27-1.04-0.27
	c-0.22,0-0.52,0.04-0.67,0.06l-0.02,0l-0.03,0l0.01,0.07c0.02,0.13,0.04,0.3,0.04,0.52l0,0.2l0,0.25c0,0.54,0.08,0.85,0.27,1.09
	c-0.05,0.02-0.13,0.03-0.18,0.03c-0.34,0-0.44-0.15-0.44-1.12c0-0.19-0.01-0.38-0.02-0.5l-0.01-0.18l-0.04,0.03
	c-0.5,0.38-1.02,1.07-1.05,1.58c-0.15-0.1-0.32-0.32-0.32-0.48c0-0.28,0.42-0.7,0.91-1.18l0.28-0.28l0.03-0.04l-0.09-0.02
	c-0.1-0.03-0.3-0.08-0.46-0.08c-0.55,0-0.89,0.1-1.1,0.33c-0.08-0.11-0.14-0.36-0.14-0.51c0-0.1,0.02-0.17,0.06-0.2
	c0.05-0.05,0.12-0.05,0.19-0.05h0.01c0.6,0,1.32,0.11,1.6,0.15l0.02,0l0.01-0.01c0.05-0.07,1.19-1.59,1.49-2.4
	c0.07-0.03,0.13-0.04,0.25-0.04c0.23,0,0.29,0.15,0.35,0.38C8.71,16.97,8.27,17.64,8.1,18.11 M5.01,4.44c0-1.14,0.83-2.04,1.12-2.3
	C6.2,2.16,6.27,2.17,6.34,2.19C6.03,2.57,5.49,3.2,5.49,4.04c0,1.67,1.78,3.12,3.8,3.12C9.27,7.3,9.27,7.45,9.27,7.6
	c0,0.25,0.01,0.48,0.04,0.69C7.02,8.28,5.01,6.43,5.01,4.44 M20.32,7.95c1.02,1.62,1.82,1.59,3.03,1.59c-1-0.77-1.66-1.75-1.98-2.25
	L19.5,4.3c-0.18-0.93-0.66-1.79-1.38-2.43c0.24-0.09,0.44-0.19,0.56-0.28c-1.22,0-2.43-0.62-3.1-0.62c-0.43,0-0.7,0.26-0.7,0.6
	c0.03,0.38,0.42,0.76,1.13,0.76c0.16,0,0.37-0.02,0.6-0.06c0.39,0.54,0.7,1.03,0.7,1.73c0,1.31-1.57,2.33-3.15,2.33
	c-0.09,0-0.18,0-0.26-0.01c-0.14-0.32-0.62-0.87-0.62-1.49c0-1.04,0.68-1.89,0.68-2.92c0-0.64-0.31-1.04-0.43-1.2
	c0.19-0.18,0.41-0.4,0.46-0.55c-0.11,0.05-0.25,0.05-0.44,0.05c-0.76,0-1.38-0.2-1.98-0.2c-0.34,0-0.44,0.11-0.44,0.21
	c0,0.04,0.01,0.07,0.02,0.09c-0.13-0.05-0.25-0.08-0.39-0.11c-0.18-0.03-0.37-0.05-0.57-0.05c-0.73,0-0.99,0.31-0.99,0.57
	c0,0.22,0.17,0.63,0.37,0.94c0.28-0.14,0.63-0.24,0.78-0.24c0.39,0,0.73,0.37,0.92,0.81c-0.26,0.03-0.31,0.04-0.58,0.04
	C9.98,2.26,9.5,2,9.4,2c-0.01,0-0.03,0-0.03,0.02c0,0.1,0.2,0.36,0.6,0.51c0.52,0.19,1.31,0.27,1.44,0.29
	c0,0.02-0.13,0.27-0.28,0.32c-0.03,0.01-0.06,0.01-0.09,0c-0.55-0.11-0.7-0.15-1.4-0.42C9.62,2.72,9.61,2.74,9.61,2.76
	c0,0.28,0.71,0.88,1.35,1.11c-0.53,0.68-1.2,1.38-1.51,2.44C9.36,6.32,9.27,6.32,9.18,6.32c-1.58,0-3.15-1.02-3.15-2.33
	c0-0.7,0.31-1.19,0.7-1.73c0.23,0.04,0.43,0.06,0.6,0.06c0.72,0,1.1-0.38,1.13-0.76c0-0.34-0.27-0.6-0.7-0.6
	c-0.67,0-1.88,0.62-3.1,0.62c0.12,0.09,0.32,0.19,0.56,0.28C4.51,2.51,4.03,3.37,3.85,4.3L1.98,7.29C1.67,7.79,1,8.77,0,9.54
	c1.21,0,2.01,0.03,3.04-1.59l0.96-1.53C4.07,6.61,4.15,6.81,4.26,7l-1.91,3.05c-0.32,0.5-0.98,1.48-1.98,2.25
	c1.21,0,2.01,0.03,3.03-1.59l1.64-2.63C5.17,8.21,5.3,8.34,5.43,8.46l-2.32,3.71c-0.32,0.51-0.97,1.48-1.98,2.25
	c1.21,0,2.01,0.03,3.04-1.59l2.26-3.62c0.15,0.09,0.3,0.19,0.46,0.27L4.13,13.9c-0.32,0.51-0.97,1.48-1.98,2.25
	c1.21,0,2.01,0.03,3.04-1.59l2.84-4.54c0.17,0.07,0.34,0.13,0.51,0.18l-3.21,5.13c-0.31,0.5-0.98,1.49-1.98,2.25
	c1.21,0,2.01,0.03,3.03-1.59l3.42-5.47c0.03,0.01,0.07,0.01,0.1,0.02c0.09,0.3,0.16,0.57,0.16,0.85c0,1.72-1.13,3.24-2.48,4.41
	c0.09,0.04,0.24,0.05,0.38,0.05c0.28,0,0.46-0.01,0.59-0.04c-0.31,0.71-0.99,1.63-1.33,2.11c-0.44-0.08-1.09-0.14-1.51-0.14
	c-0.44,0-0.49,0.26-0.49,0.49c0,0.4,0.19,0.72,0.41,0.9c0.08-0.2,0.25-0.48,1.06-0.48c0.02,0,0.04,0,0.08,0.01
	c-0.24,0.27-0.99,0.87-0.99,1.36c0,0.32,0.35,0.8,0.82,0.8c-0.03-0.1-0.02-0.2-0.02-0.27c0-0.4,0.35-0.86,0.64-1.18
	c-0.01,0.1-0.01,0.09-0.01,0.2c0,0.93,0.09,1.36,0.68,1.36c0.29,0,0.49-0.16,0.56-0.21c-0.38-0.35-0.4-0.63-0.4-1.15
	c0-0.14,0-0.27,0-0.45c0-0.12,0-0.28-0.02-0.39c0.21-0.03,0.3-0.03,0.46-0.03c0,0,0.84-0.07,1.04,0.37c0.23-0.21,0.56-0.5,0.56-0.83
	c0-0.21-0.1-0.46-0.53-0.46c-0.16,0-0.68,0.1-1.11,0.1c0.11-0.26,0.63-1.01,1.08-1.56c0.07,0.21,0.17,0.44,0.41,0.63
	c0.03-0.35,0.24-1.47,0.79-2.12c0.06,0.44,0.15,0.89,0.15,1.84c0,2.31-0.56,4.02-1.74,4.35c0.15,0.27,0.48,0.51,0.82,0.51
	c0.43,0,0.67-0.49,0.91-0.95c0.12,0.34,0.47,1.17,0.82,1.17s0.69-0.83,0.82-1.17c0.24,0.46,0.47,0.95,0.91,0.95
	c0.34,0,0.66-0.24,0.82-0.51c-1.18-0.33-1.74-2.03-1.74-4.35c0-0.95,0.09-1.4,0.15-1.84c0.55,0.65,0.76,1.76,0.79,2.12
	c0.23-0.19,0.34-0.42,0.41-0.63c0.45,0.55,0.96,1.3,1.08,1.56c-0.43,0-0.95-0.1-1.11-0.1c-0.43,0-0.53,0.24-0.53,0.46
	c0,0.33,0.33,0.62,0.56,0.83c0.2-0.44,1.04-0.37,1.04-0.37c0.16,0,0.25,0,0.46,0.03c-0.02,0.11-0.02,0.27-0.02,0.39
	c0,0.18,0,0.32,0,0.45c0,0.52-0.02,0.8-0.4,1.15c0.07,0.05,0.27,0.21,0.56,0.21c0.59,0,0.67-0.43,0.67-1.36c0-0.11,0-0.1,0-0.2
	c0.29,0.32,0.64,0.78,0.64,1.18c0,0.07,0,0.17-0.03,0.27c0.47,0,0.82-0.48,0.82-0.8c0-0.49-0.75-1.09-0.99-1.36
	c0.04,0,0.07-0.01,0.08-0.01c0.82,0,0.98,0.28,1.06,0.48c0.22-0.18,0.41-0.5,0.41-0.9c0-0.23-0.05-0.49-0.49-0.49
	c-0.42,0-1.07,0.06-1.51,0.14c-0.34-0.48-1.01-1.4-1.33-2.11c0.13,0.02,0.31,0.04,0.59,0.04c0.14,0,0.29-0.01,0.38-0.05
	c-1.35-1.17-2.48-2.69-2.48-4.41c0-0.28,0.07-0.55,0.16-0.85c0.03-0.01,0.07-0.01,0.1-0.02l3.42,5.47c1.02,1.62,1.83,1.59,3.03,1.59
	c-1-0.76-1.67-1.75-1.98-2.25l-3.21-5.13c0.17-0.06,0.34-0.12,0.51-0.18l2.84,4.54c1.02,1.62,1.83,1.59,3.04,1.59
	c-1.01-0.77-1.66-1.74-1.98-2.25l-2.76-4.41c0.16-0.09,0.31-0.18,0.46-0.27l2.26,3.62c1.02,1.62,1.82,1.59,3.03,1.59
	c-1.01-0.77-1.66-1.74-1.98-2.25l-2.32-3.71c0.14-0.12,0.27-0.25,0.39-0.38l1.64,2.63c1.02,1.62,1.83,1.59,3.04,1.59
	c-1.01-0.77-1.66-1.75-1.98-2.25L19.1,7c0.1-0.19,0.19-0.38,0.26-0.58L20.32,7.95z"/>
<rect x="29.43" y="0.96" width="3.5" height="20"/>
<polyline points="43.86,1.57 41.29,1.57 41.29,4.36 43.71,4.36 43.71,5.13 41.29,5.13 41.29,8.96 40.33,8.96 40.33,0.79 43.86,0.79 
	43.86,1.57 "/>
<path d="M47.57,5.62c0-0.55-0.04-0.94-0.11-1.17c-0.13-0.45-0.42-0.68-0.87-0.68c-0.62,0-0.97,0.37-1.05,1.11
	c-0.03,0.26-0.04,0.5-0.04,0.74H47.57 M48.48,6.23h-2.98v0.38c0,0.58,0.05,1,0.16,1.25c0.15,0.37,0.44,0.55,0.88,0.55
	c0.65,0,1-0.42,1.03-1.25h0.88c-0.05,1.26-0.69,1.9-1.91,1.9c-0.79,0-1.33-0.27-1.63-0.8c-0.22-0.4-0.33-1.04-0.33-1.93
	c0-1.01,0.09-1.73,0.28-2.17c0.29-0.69,0.87-1.03,1.74-1.03c0.81,0,1.36,0.3,1.63,0.9c0.17,0.38,0.25,1.02,0.25,1.93V6.23z"/>
<path d="M52.74,6.17c0-0.78-0.06-1.33-0.17-1.66c-0.16-0.47-0.46-0.71-0.91-0.71c-0.44,0-0.75,0.25-0.9,0.74
	c-0.1,0.33-0.16,0.83-0.16,1.51c0,0.75,0.06,1.29,0.18,1.64c0.16,0.47,0.44,0.7,0.85,0.7c0.48,0,0.8-0.24,0.96-0.71
	C52.69,7.37,52.74,6.87,52.74,6.17 M53.65,8.96h-0.87L52.77,8.3C52.45,8.8,52,9.05,51.44,9.05c-0.73,0-1.23-0.33-1.5-0.98
	c-0.17-0.44-0.26-1.11-0.26-2.03c0-0.87,0.1-1.52,0.31-1.97c0.27-0.62,0.75-0.92,1.43-0.92c0.57,0,1,0.22,1.29,0.67V0.79h0.9v7.1
	C53.61,8.09,53.62,8.45,53.65,8.96"/>
<path d="M58.06,5.62c0-0.55-0.04-0.94-0.11-1.17c-0.13-0.45-0.42-0.68-0.87-0.68c-0.62,0-0.97,0.37-1.05,1.11
	c-0.03,0.26-0.04,0.5-0.04,0.74H58.06 M58.96,6.23h-2.98v0.38c0,0.58,0.05,1,0.16,1.25c0.15,0.37,0.44,0.55,0.88,0.55
	c0.65,0,1-0.42,1.03-1.25h0.88c-0.05,1.26-0.69,1.9-1.91,1.9c-0.79,0-1.33-0.27-1.63-0.8c-0.22-0.4-0.33-1.04-0.33-1.93
	c0-1.01,0.09-1.73,0.28-2.17c0.29-0.69,0.87-1.03,1.74-1.03c0.81,0,1.35,0.3,1.63,0.9c0.17,0.38,0.25,1.02,0.25,1.93V6.23z"/>
<path d="M62.76,4.01c-0.09-0.01-0.15-0.02-0.19-0.02c-0.43,0-0.75,0.13-0.97,0.4C61.39,4.64,61.28,5,61.28,5.43v3.53h-0.9V4.3
	c0-0.38-0.01-0.73-0.03-1.04h0.88v0.75c0.31-0.57,0.79-0.86,1.45-0.86C62.73,3.15,62.76,3.43,62.76,4.01"/>
<path d="M66.29,6.75V6.08h-0.23c-1.19,0-1.79,0.4-1.79,1.22c0,0.73,0.28,1.1,0.84,1.1c0.42,0,0.74-0.18,0.94-0.54
	C66.21,7.56,66.29,7.2,66.29,6.75 M67.23,8.96h-0.87l-0.01-0.75c-0.38,0.56-0.89,0.84-1.53,0.84c-0.48,0-0.85-0.16-1.12-0.47
	c-0.23-0.3-0.35-0.7-0.35-1.2c0-0.81,0.31-1.35,0.93-1.63c0.41-0.19,1.08-0.29,2.01-0.29V5.21c0-0.47-0.04-0.79-0.11-0.97
	c-0.12-0.3-0.38-0.45-0.77-0.45c-0.27,0-0.5,0.07-0.68,0.23c-0.18,0.15-0.27,0.36-0.27,0.63V4.7h-0.89V4.64
	c0-0.52,0.19-0.91,0.56-1.16c0.32-0.23,0.76-0.34,1.31-0.34c0.65,0,1.11,0.16,1.37,0.47c0.24,0.28,0.36,0.76,0.36,1.42v2.1
	C67.17,7.82,67.19,8.43,67.23,8.96"/>
<polyline points="69.28,0.79 68.83,0.79 68.83,8.96 69.72,8.96 69.72,0.79 69.28,0.79 "/>
<polyline points="81.36,8.96 80.42,8.96 80.42,1.5 78.32,8.96 77.25,8.96 75.15,1.5 75.15,8.96 74.28,8.96 74.28,0.79 75.86,0.79 
	77.82,7.99 79.78,0.79 81.36,0.79 81.36,8.96 "/>
<path d="M83.19,8.96h0.89v-5.7h-0.89V8.96z M83.15,1.87h0.98V0.9h-0.98V1.87z"/>
<path d="M89.59,8.96h-0.89V5.32c0-0.49-0.03-0.82-0.1-1.01c-0.13-0.33-0.39-0.5-0.78-0.5c-0.39,0-0.68,0.19-0.89,0.57
	c-0.17,0.32-0.26,0.71-0.26,1.15v3.42h-0.89V4.51c0-0.5-0.02-0.92-0.04-1.24h0.88v0.78c0.32-0.6,0.81-0.9,1.48-0.9
	c1,0,1.5,0.59,1.5,1.77V8.96"/>
<path d="M91.27,8.96h0.89v-5.7h-0.89V8.96z M91.23,1.87h0.98V0.9h-0.98V1.87z"/>
<path d="M97,7.4c0,1.11-0.6,1.66-1.79,1.66c-1.17,0-1.74-0.61-1.72-1.84h0.89c0,0.11,0,0.22,0.01,0.32
	c0.05,0.59,0.33,0.89,0.84,0.89c0.57,0,0.86-0.29,0.86-0.88c0-0.32-0.09-0.56-0.27-0.75c-0.11-0.12-0.37-0.28-0.76-0.5
	c-0.53-0.29-0.87-0.5-1.02-0.63c-0.29-0.26-0.43-0.61-0.43-1.05c0-0.49,0.16-0.86,0.49-1.12c0.3-0.24,0.7-0.36,1.21-0.36
	c0.59,0,1.01,0.14,1.26,0.41c0.25,0.28,0.38,0.7,0.4,1.27h-0.89c0-0.71-0.27-1.06-0.8-1.06c-0.23,0-0.42,0.07-0.56,0.22
	c-0.13,0.14-0.2,0.33-0.2,0.57c0,0.25,0.11,0.47,0.33,0.66c0.11,0.1,0.38,0.27,0.8,0.5c0.46,0.25,0.77,0.46,0.95,0.63
	C96.86,6.61,97,6.97,97,7.4"/>
<path d="M100.55,8.96C100.27,8.99,100.05,9,99.89,9c-0.51,0-0.86-0.11-1.05-0.33c-0.16-0.2-0.24-0.55-0.24-1.07V3.92h-0.85V3.26
	h0.85V2.21l0.89-0.4v1.45h1.02v0.66H99.5V7.5c0,0.31,0.04,0.53,0.14,0.64c0.09,0.11,0.26,0.16,0.51,0.16c0.04,0,0.18-0.01,0.41-0.05
	V8.96"/>
<path d="M104.04,4.01c-0.09-0.01-0.15-0.02-0.19-0.02c-0.43,0-0.75,0.13-0.97,0.4c-0.21,0.26-0.32,0.61-0.32,1.05v3.53h-0.9V4.3
	c0-0.38-0.01-0.73-0.03-1.04h0.88v0.75c0.31-0.57,0.79-0.86,1.45-0.86C104.01,3.15,104.04,3.43,104.04,4.01"/>
<polyline points="108.73,3.26 106.45,11.12 105.58,11.12 106.23,8.96 104.53,3.26 105.49,3.26 106.68,7.83 107.85,3.26 108.73,3.26 
	"/>
<path d="M42.38,13.45c-0.07-0.01-0.19-0.01-0.35-0.01c-0.28,0-0.47,0.1-0.56,0.31c-0.06,0.14-0.09,0.37-0.09,0.69v0.83h0.97v0.65
	h-0.97v5.04h-0.89v-5.04h-0.84v-0.65h0.84v-0.62c0-0.62,0.08-1.06,0.23-1.32c0.21-0.39,0.62-0.59,1.22-0.59
	c0.16,0,0.31,0.01,0.45,0.02V13.45"/>
<path d="M46.31,18.68v-0.87c0-0.65-0.04-1.1-0.11-1.34c-0.14-0.46-0.45-0.69-0.92-0.69c-0.49,0-0.81,0.25-0.97,0.73
	c-0.08,0.26-0.12,0.7-0.12,1.32v0.81c0,0.55,0.05,0.94,0.14,1.18c0.16,0.4,0.47,0.6,0.93,0.6c0.44,0,0.75-0.19,0.9-0.58
	C46.26,19.59,46.31,19.21,46.31,18.68 M47.23,18.08c0,1.04-0.12,1.77-0.35,2.2c-0.29,0.53-0.84,0.79-1.65,0.79
	c-0.82,0-1.37-0.26-1.65-0.79c-0.21-0.4-0.32-1.11-0.32-2.12c0-0.98,0.11-1.69,0.34-2.12c0.3-0.6,0.87-0.89,1.69-0.89
	c0.82,0,1.37,0.28,1.64,0.82C47.14,16.35,47.23,17.05,47.23,18.08"/>
<path d="M51.07,16.01c-0.09-0.01-0.16-0.02-0.19-0.02c-0.43,0-0.75,0.13-0.97,0.4c-0.21,0.26-0.32,0.61-0.32,1.05v3.52h-0.9V16.3
	c0-0.38-0.01-0.73-0.03-1.04h0.88v0.75c0.31-0.57,0.79-0.86,1.45-0.86C51.04,15.15,51.07,15.43,51.07,16.01"/>
<polyline points="58.85,20.96 55.01,20.96 55.01,12.79 58.77,12.79 58.77,13.57 55.97,13.57 55.97,16.37 58.62,16.37 58.62,17.13 
	55.97,17.13 55.97,20.18 58.85,20.18 58.85,20.96 "/>
<path d="M63.69,19.18c0,1.26-0.59,1.89-1.77,1.89c-0.81,0-1.36-0.26-1.64-0.79c-0.21-0.4-0.32-1.09-0.32-2.08
	c0-0.99,0.09-1.69,0.28-2.1c0.29-0.64,0.85-0.96,1.7-0.96c0.65,0,1.11,0.15,1.38,0.45c0.25,0.29,0.37,0.75,0.37,1.39h-0.88
	c0-0.8-0.29-1.2-0.88-1.2c-0.47,0-0.77,0.25-0.92,0.75c-0.08,0.29-0.12,0.82-0.12,1.57c0,0.86,0.06,1.45,0.19,1.77
	c0.14,0.36,0.41,0.54,0.81,0.54c0.35,0,0.6-0.12,0.75-0.37c0.11-0.19,0.16-0.48,0.17-0.87H63.69"/>
<path d="M67.76,18.68v-0.87c0-0.65-0.04-1.1-0.11-1.34c-0.14-0.46-0.45-0.69-0.92-0.69c-0.49,0-0.81,0.25-0.97,0.73
	c-0.08,0.26-0.12,0.7-0.12,1.32v0.81c0,0.55,0.04,0.94,0.13,1.18c0.16,0.4,0.47,0.6,0.93,0.6c0.44,0,0.75-0.19,0.9-0.58
	C67.7,19.59,67.76,19.21,67.76,18.68 M68.68,18.08c0,1.04-0.12,1.77-0.35,2.2c-0.29,0.53-0.84,0.79-1.65,0.79
	c-0.82,0-1.37-0.26-1.65-0.79c-0.21-0.4-0.32-1.11-0.32-2.12c0-0.98,0.11-1.69,0.34-2.12c0.3-0.6,0.87-0.89,1.7-0.89
	c0.82,0,1.37,0.28,1.64,0.82C68.58,16.35,68.68,17.05,68.68,18.08"/>
<path d="M73.96,20.96h-0.89v-3.64c0-0.49-0.03-0.82-0.1-1.01c-0.13-0.33-0.39-0.5-0.78-0.5c-0.38,0-0.68,0.19-0.89,0.57
	c-0.17,0.33-0.26,0.71-0.26,1.15v3.42h-0.89V16.5c0-0.5-0.02-0.92-0.05-1.24h0.88v0.78c0.32-0.6,0.81-0.9,1.48-0.9
	c1,0,1.5,0.59,1.5,1.77V20.96"/>
<path d="M78.46,18.68v-0.87c0-0.65-0.04-1.1-0.11-1.34c-0.14-0.46-0.45-0.69-0.91-0.69c-0.49,0-0.81,0.25-0.97,0.73
	c-0.08,0.26-0.12,0.7-0.12,1.32v0.81c0,0.55,0.04,0.94,0.14,1.18c0.16,0.4,0.47,0.6,0.93,0.6c0.45,0,0.75-0.19,0.9-0.58
	C78.4,19.59,78.46,19.21,78.46,18.68 M79.38,18.08c0,1.04-0.12,1.77-0.35,2.2c-0.29,0.53-0.84,0.79-1.65,0.79
	c-0.82,0-1.37-0.26-1.65-0.79c-0.21-0.4-0.32-1.11-0.32-2.12c0-0.98,0.11-1.69,0.34-2.12c0.3-0.6,0.87-0.89,1.69-0.89
	c0.82,0,1.37,0.28,1.64,0.82C79.29,16.35,79.38,17.05,79.38,18.08"/>
<path d="M87.11,20.96h-0.89v-3.83c0-0.41-0.04-0.71-0.11-0.88c-0.11-0.28-0.34-0.42-0.68-0.42c-0.67,0-1,0.52-1,1.55v3.58h-0.89
	v-3.88c0-0.4-0.03-0.68-0.09-0.84c-0.11-0.28-0.34-0.42-0.69-0.42c-0.34,0-0.6,0.17-0.78,0.5c-0.16,0.29-0.24,0.67-0.24,1.14v3.49
	h-0.89v-4.71c0-0.34-0.01-0.67-0.05-0.98h0.89v0.75c0.3-0.58,0.75-0.87,1.35-0.87c0.65,0,1.07,0.29,1.26,0.87
	c0.33-0.58,0.8-0.87,1.41-0.87c0.52,0,0.89,0.17,1.11,0.51c0.19,0.29,0.29,0.77,0.29,1.44V20.96"/>
<path d="M88.8,20.96h0.89v-5.7H88.8V20.96z M88.75,13.87h0.98V12.9h-0.98V13.87z"/>
<path d="M94.88,19.18c0,1.26-0.59,1.89-1.77,1.89c-0.81,0-1.36-0.26-1.64-0.79c-0.21-0.4-0.32-1.09-0.32-2.08
	c0-0.99,0.09-1.69,0.28-2.1c0.29-0.64,0.85-0.96,1.69-0.96c0.65,0,1.11,0.15,1.38,0.45c0.25,0.29,0.37,0.75,0.37,1.39h-0.88
	c0-0.8-0.29-1.2-0.88-1.2c-0.47,0-0.77,0.25-0.92,0.75c-0.08,0.29-0.12,0.82-0.12,1.57c0,0.86,0.06,1.45,0.19,1.77
	c0.14,0.36,0.41,0.54,0.81,0.54c0.36,0,0.6-0.12,0.75-0.37c0.1-0.19,0.16-0.48,0.17-0.87H94.88"/>
<path d="M103.46,18.7c0,1.6-0.77,2.41-2.33,2.41c-1.05,0-1.73-0.38-2.06-1.14c-0.22-0.53-0.33-1.54-0.33-3.05
	c0-1.45,0.11-2.45,0.32-2.98c0.35-0.86,1.07-1.3,2.16-1.3c1.44,0,2.17,0.76,2.17,2.27v0.18h-0.97v-0.15c0-1.02-0.41-1.53-1.22-1.53
	c-0.64,0-1.06,0.32-1.25,0.96c-0.14,0.44-0.2,1.27-0.2,2.51c0,1.32,0.07,2.19,0.2,2.61c0.18,0.57,0.58,0.86,1.19,0.86
	c0.9,0,1.35-0.56,1.35-1.67v-0.16h0.98V18.7"/>
<path d="M107.61,18.68v-0.87c0-0.65-0.04-1.1-0.11-1.34c-0.15-0.46-0.45-0.69-0.92-0.69c-0.49,0-0.81,0.25-0.97,0.73
	c-0.08,0.26-0.12,0.7-0.12,1.32v0.81c0,0.55,0.05,0.94,0.14,1.18c0.16,0.4,0.47,0.6,0.93,0.6c0.44,0,0.75-0.19,0.9-0.58
	C107.56,19.59,107.61,19.21,107.61,18.68 M108.54,18.08c0,1.04-0.12,1.77-0.35,2.2c-0.29,0.53-0.84,0.79-1.65,0.79
	c-0.82,0-1.37-0.26-1.65-0.79c-0.21-0.4-0.32-1.11-0.32-2.12c0-0.98,0.11-1.69,0.34-2.12c0.3-0.6,0.87-0.89,1.69-0.89
	c0.82,0,1.37,0.28,1.64,0.82C108.44,16.35,108.54,17.05,108.54,18.08"/>
<path d="M112.81,18.68v-0.87c0-0.65-0.04-1.1-0.11-1.34c-0.14-0.46-0.45-0.69-0.92-0.69c-0.49,0-0.81,0.25-0.97,0.73
	c-0.08,0.26-0.12,0.7-0.12,1.32v0.81c0,0.55,0.04,0.94,0.14,1.18c0.16,0.4,0.47,0.6,0.93,0.6c0.44,0,0.75-0.19,0.9-0.58
	C112.76,19.59,112.81,19.21,112.81,18.68 M113.74,18.08c0,1.04-0.12,1.77-0.35,2.2c-0.29,0.53-0.84,0.79-1.65,0.79
	c-0.82,0-1.37-0.26-1.65-0.79c-0.21-0.4-0.32-1.11-0.32-2.12c0-0.98,0.11-1.69,0.34-2.12c0.3-0.6,0.87-0.89,1.7-0.89
	c0.82,0,1.37,0.28,1.64,0.82C113.64,16.35,113.74,17.05,113.74,18.08"/>
<path d="M118.21,18c0-0.67-0.04-1.15-0.13-1.45c-0.15-0.49-0.45-0.73-0.89-0.73c-0.44,0-0.74,0.24-0.93,0.73
	c-0.13,0.36-0.19,0.9-0.19,1.62c0,0.7,0.04,1.19,0.14,1.48c0.17,0.49,0.49,0.74,0.98,0.74c0.46,0,0.76-0.29,0.92-0.87
	C118.17,19.21,118.21,18.71,118.21,18 M119.12,18.01c0,0.95-0.08,1.63-0.25,2.05c-0.26,0.66-0.75,0.98-1.49,0.98
	c-0.57,0-1-0.21-1.3-0.63v2.71h-0.89v-6.53c0-0.64-0.01-1.08-0.04-1.32h0.88v0.68c0.32-0.54,0.79-0.8,1.41-0.8
	c0.7,0,1.18,0.31,1.44,0.92C119.04,16.47,119.12,17.12,119.12,18.01"/>
<path d="M123.35,17.62c0-0.55-0.04-0.94-0.11-1.17c-0.13-0.45-0.42-0.68-0.87-0.68c-0.62,0-0.97,0.37-1.05,1.11
	c-0.03,0.26-0.04,0.5-0.04,0.74H123.35 M124.26,18.23h-2.98v0.38c0,0.58,0.05,1,0.16,1.25c0.15,0.37,0.44,0.55,0.88,0.55
	c0.65,0,1-0.42,1.03-1.25h0.88c-0.05,1.27-0.69,1.9-1.91,1.9c-0.79,0-1.33-0.27-1.63-0.8c-0.22-0.4-0.33-1.04-0.33-1.93
	c0-1.01,0.09-1.73,0.28-2.17c0.29-0.69,0.88-1.03,1.74-1.03c0.81,0,1.36,0.3,1.63,0.9c0.17,0.38,0.25,1.02,0.25,1.93V18.23z"/>
<path d="M128.05,16.01c-0.09-0.01-0.15-0.02-0.19-0.02c-0.43,0-0.75,0.13-0.97,0.4c-0.21,0.26-0.32,0.61-0.32,1.05v3.52h-0.9V16.3
	c0-0.38-0.01-0.73-0.03-1.04h0.88v0.75c0.31-0.57,0.79-0.86,1.44-0.86C128.02,15.15,128.05,15.43,128.05,16.01"/>
<path d="M131.58,18.75v-0.68h-0.23c-1.19,0-1.79,0.4-1.79,1.22c0,0.73,0.28,1.1,0.84,1.1c0.42,0,0.73-0.18,0.94-0.54
	C131.5,19.56,131.58,19.2,131.58,18.75 M132.52,20.96h-0.87l-0.01-0.75c-0.38,0.56-0.89,0.84-1.52,0.84c-0.48,0-0.86-0.16-1.12-0.47
	c-0.24-0.3-0.35-0.7-0.35-1.2c0-0.81,0.31-1.35,0.93-1.63c0.41-0.19,1.08-0.29,2.01-0.29v-0.25c0-0.47-0.04-0.79-0.11-0.97
	c-0.12-0.3-0.38-0.45-0.77-0.45c-0.27,0-0.5,0.07-0.68,0.23c-0.18,0.15-0.27,0.36-0.27,0.63v0.06h-0.89v-0.06
	c0-0.52,0.19-0.91,0.57-1.16c0.33-0.23,0.76-0.34,1.31-0.34c0.65,0,1.11,0.16,1.37,0.47c0.24,0.29,0.36,0.76,0.36,1.42v2.1
	C132.46,19.82,132.48,20.43,132.52,20.96"/>
<path d="M136.19,20.96c-0.28,0.03-0.5,0.05-0.65,0.05c-0.51,0-0.86-0.11-1.05-0.33c-0.16-0.2-0.24-0.55-0.24-1.07v-3.68h-0.85v-0.65
	h0.85v-1.05l0.89-0.4v1.45h1.02v0.65h-1.02v3.58c0,0.31,0.04,0.53,0.14,0.64c0.09,0.11,0.26,0.16,0.51,0.16
	c0.04,0,0.18-0.01,0.41-0.05V20.96"/>
<path d="M137.31,20.96h0.89v-5.7h-0.89V20.96z M137.26,13.87h0.98V12.9h-0.98V13.87z"/>
<path d="M142.7,18.68v-0.87c0-0.65-0.04-1.1-0.11-1.34c-0.14-0.46-0.45-0.69-0.92-0.69c-0.49,0-0.81,0.25-0.97,0.73
	c-0.08,0.26-0.12,0.7-0.12,1.32v0.81c0,0.55,0.04,0.94,0.14,1.18c0.16,0.4,0.47,0.6,0.93,0.6c0.45,0,0.75-0.19,0.9-0.58
	C142.65,19.59,142.7,19.21,142.7,18.68 M143.62,18.08c0,1.04-0.12,1.77-0.35,2.2c-0.29,0.53-0.84,0.79-1.65,0.79
	c-0.82,0-1.37-0.26-1.65-0.79c-0.21-0.4-0.32-1.11-0.32-2.12c0-0.98,0.11-1.69,0.34-2.12c0.3-0.6,0.87-0.89,1.69-0.89
	c0.82,0,1.37,0.28,1.64,0.82C143.53,16.35,143.62,17.05,143.62,18.08"/>
<path d="M148.9,20.96h-0.89v-3.64c0-0.49-0.03-0.82-0.1-1.01c-0.13-0.33-0.39-0.5-0.78-0.5c-0.38,0-0.68,0.19-0.89,0.57
	c-0.17,0.33-0.26,0.71-0.26,1.15v3.42h-0.89V16.5c0-0.5-0.02-0.92-0.05-1.24h0.88v0.78c0.32-0.6,0.81-0.9,1.48-0.9
	c1,0,1.5,0.59,1.5,1.77V20.96"/>
<path d="M42.77,30.75v-0.68h-0.23c-1.19,0-1.79,0.4-1.79,1.22c0,0.73,0.28,1.1,0.84,1.1c0.42,0,0.74-0.18,0.94-0.54
	C42.69,31.56,42.77,31.2,42.77,30.75 M43.71,32.96h-0.87l-0.01-0.75c-0.39,0.56-0.89,0.84-1.53,0.84c-0.48,0-0.85-0.16-1.12-0.48
	c-0.23-0.3-0.35-0.7-0.35-1.2c0-0.81,0.31-1.35,0.93-1.63c0.41-0.19,1.08-0.29,2.01-0.29v-0.25c0-0.47-0.04-0.79-0.11-0.97
	c-0.12-0.3-0.38-0.45-0.77-0.45c-0.27,0-0.5,0.07-0.68,0.23c-0.18,0.15-0.27,0.36-0.27,0.63v0.06h-0.89v-0.06
	c0-0.52,0.19-0.91,0.57-1.16c0.32-0.23,0.76-0.34,1.31-0.34c0.66,0,1.11,0.16,1.37,0.47c0.24,0.28,0.36,0.76,0.36,1.42v2.1
	C43.65,31.82,43.67,32.43,43.71,32.96"/>
<path d="M49.13,32.96h-0.89v-3.64c0-0.49-0.03-0.82-0.1-1.01c-0.13-0.33-0.39-0.5-0.78-0.5c-0.38,0-0.68,0.19-0.89,0.57
	c-0.17,0.33-0.26,0.71-0.26,1.15v3.42h-0.89V28.5c0-0.5-0.02-0.92-0.05-1.24h0.88v0.78c0.32-0.6,0.81-0.9,1.48-0.9
	c1,0,1.5,0.59,1.5,1.77V32.96"/>
<path d="M53.65,30.17c0-0.78-0.06-1.33-0.17-1.66c-0.16-0.47-0.46-0.71-0.91-0.71c-0.45,0-0.75,0.25-0.9,0.75
	c-0.11,0.32-0.16,0.83-0.16,1.51c0,0.75,0.06,1.29,0.18,1.64c0.16,0.47,0.44,0.7,0.85,0.7c0.48,0,0.8-0.24,0.96-0.71
	C53.6,31.37,53.65,30.87,53.65,30.17 M54.57,32.96H53.7l-0.01-0.65c-0.32,0.5-0.77,0.75-1.33,0.75c-0.73,0-1.23-0.33-1.5-0.99
	c-0.17-0.44-0.26-1.11-0.26-2.03c0-0.87,0.1-1.52,0.31-1.97c0.27-0.62,0.75-0.92,1.43-0.92c0.57,0,1,0.22,1.29,0.67v-3.02h0.9v7.1
	C54.52,32.09,54.54,32.44,54.57,32.96"/>
<path d="M62.83,28.83c0-0.75-0.02-1.28-0.06-1.59c-0.09-0.71-0.29-1.17-0.61-1.4c-0.26-0.2-0.63-0.29-1.13-0.29h-0.99v6.64h1.12
	c0.41,0,0.73-0.09,0.98-0.28c0.32-0.23,0.52-0.71,0.62-1.42C62.81,30.14,62.83,29.59,62.83,28.83 M63.84,28.74
	c0,0.86-0.03,1.5-0.09,1.91c-0.11,0.78-0.35,1.34-0.7,1.68c-0.43,0.41-1.09,0.62-1.97,0.62h-2v-8.17h2c0.81,0,1.42,0.16,1.84,0.47
	c0.38,0.28,0.63,0.69,0.76,1.23C63.78,26.94,63.84,27.69,63.84,28.74"/>
<path d="M68.18,29.62c0-0.55-0.04-0.94-0.11-1.17c-0.14-0.45-0.43-0.68-0.87-0.68c-0.62,0-0.97,0.37-1.05,1.11
	c-0.03,0.26-0.04,0.5-0.04,0.74H68.18 M69.09,30.23h-2.98v0.38c0,0.58,0.05,1,0.16,1.25c0.15,0.37,0.45,0.55,0.88,0.55
	c0.66,0,1-0.42,1.03-1.25h0.88c-0.05,1.27-0.69,1.9-1.91,1.9c-0.79,0-1.33-0.27-1.63-0.8c-0.22-0.4-0.33-1.04-0.33-1.93
	c0-1.01,0.09-1.73,0.28-2.17c0.29-0.69,0.87-1.03,1.74-1.03c0.81,0,1.36,0.3,1.63,0.9c0.17,0.38,0.25,1.02,0.25,1.93V30.23z"/>
<polyline points="73.98,27.26 72.39,32.96 71.37,32.96 69.79,27.26 70.75,27.26 71.91,32.05 73.11,27.26 73.98,27.26 "/>
<path d="M77.71,29.62c0-0.55-0.04-0.94-0.11-1.17c-0.14-0.45-0.43-0.68-0.87-0.68c-0.62,0-0.97,0.37-1.05,1.11
	c-0.03,0.26-0.04,0.5-0.04,0.74H77.71 M78.62,30.23h-2.98v0.38c0,0.58,0.05,1,0.16,1.25c0.15,0.37,0.45,0.55,0.88,0.55
	c0.66,0,1-0.42,1.03-1.25h0.88c-0.05,1.27-0.69,1.9-1.91,1.9c-0.79,0-1.33-0.27-1.63-0.8c-0.22-0.4-0.33-1.04-0.33-1.93
	c0-1.01,0.09-1.73,0.28-2.17c0.29-0.69,0.87-1.03,1.74-1.03c0.81,0,1.36,0.3,1.63,0.9c0.17,0.38,0.25,1.02,0.25,1.93V30.23z"/>
<polyline points="80.49,24.79 80.04,24.79 80.04,32.96 80.93,32.96 80.93,24.79 80.49,24.79 "/>
<path d="M85.43,30.68v-0.87c0-0.65-0.04-1.1-0.11-1.34c-0.15-0.46-0.45-0.69-0.92-0.69c-0.49,0-0.82,0.24-0.97,0.73
	c-0.08,0.26-0.12,0.7-0.12,1.32v0.81c0,0.55,0.04,0.94,0.14,1.18c0.16,0.4,0.47,0.6,0.93,0.6c0.44,0,0.74-0.19,0.9-0.58
	C85.38,31.59,85.43,31.21,85.43,30.68 M86.36,30.08c0,1.04-0.12,1.77-0.35,2.2c-0.29,0.53-0.84,0.79-1.65,0.79
	c-0.82,0-1.37-0.26-1.65-0.79c-0.21-0.4-0.32-1.11-0.32-2.12c0-0.98,0.11-1.69,0.34-2.12c0.3-0.6,0.87-0.89,1.69-0.89
	c0.82,0,1.37,0.28,1.64,0.83C86.26,28.35,86.36,29.05,86.36,30.08"/>
<path d="M90.83,30c0-0.67-0.05-1.15-0.14-1.45c-0.15-0.49-0.45-0.73-0.89-0.73c-0.44,0-0.74,0.24-0.93,0.73
	c-0.13,0.36-0.19,0.9-0.19,1.62c0,0.7,0.04,1.19,0.14,1.48c0.16,0.49,0.49,0.74,0.98,0.74c0.46,0,0.76-0.29,0.92-0.87
	C90.79,31.21,90.83,30.71,90.83,30 M91.75,30.01c0,0.95-0.08,1.63-0.25,2.05c-0.26,0.65-0.75,0.98-1.49,0.98
	c-0.57,0-1-0.21-1.3-0.63v2.71h-0.89v-6.53c0-0.64-0.02-1.08-0.04-1.32h0.88v0.68c0.33-0.53,0.8-0.8,1.41-0.8
	c0.7,0,1.18,0.31,1.43,0.92C91.66,28.47,91.75,29.12,91.75,30.01"/>
<path d="M99.48,32.96h-0.89v-3.83c0-0.41-0.04-0.71-0.11-0.88c-0.11-0.28-0.34-0.42-0.68-0.42c-0.67,0-1.01,0.52-1.01,1.55v3.58
	h-0.89v-3.88c0-0.4-0.03-0.68-0.09-0.84c-0.1-0.28-0.34-0.42-0.69-0.42c-0.34,0-0.6,0.17-0.78,0.5c-0.16,0.29-0.24,0.67-0.24,1.14
	v3.49H93.2v-4.71c0-0.34-0.02-0.67-0.04-0.98h0.89v0.75c0.3-0.58,0.75-0.87,1.35-0.87c0.65,0,1.07,0.29,1.27,0.87
	c0.33-0.58,0.8-0.87,1.41-0.87c0.52,0,0.89,0.17,1.1,0.51c0.2,0.29,0.3,0.77,0.3,1.44V32.96"/>
<path d="M103.93,29.62c0-0.55-0.04-0.94-0.11-1.17c-0.14-0.45-0.42-0.68-0.87-0.68c-0.62,0-0.97,0.37-1.05,1.11
	c-0.03,0.26-0.04,0.5-0.04,0.74H103.93 M104.83,30.23h-2.98v0.38c0,0.58,0.05,1,0.16,1.25c0.15,0.37,0.44,0.55,0.88,0.55
	c0.66,0,1-0.42,1.03-1.25h0.88c-0.05,1.27-0.69,1.9-1.91,1.9c-0.79,0-1.33-0.27-1.63-0.8c-0.22-0.4-0.33-1.04-0.33-1.93
	c0-1.01,0.09-1.73,0.28-2.17c0.29-0.69,0.87-1.03,1.74-1.03c0.81,0,1.35,0.3,1.63,0.9c0.17,0.38,0.25,1.02,0.25,1.93V30.23z"/>
<path d="M110.07,32.96h-0.89v-3.64c0-0.49-0.03-0.82-0.1-1.01c-0.13-0.33-0.39-0.5-0.78-0.5c-0.38,0-0.68,0.19-0.89,0.57
	c-0.17,0.33-0.26,0.71-0.26,1.15v3.42h-0.89V28.5c0-0.5-0.01-0.92-0.04-1.24h0.88v0.78c0.32-0.6,0.81-0.9,1.48-0.9
	c1,0,1.5,0.59,1.5,1.77V32.96"/>
<path d="M113.96,32.96c-0.28,0.03-0.5,0.05-0.66,0.05c-0.51,0-0.86-0.11-1.05-0.33c-0.16-0.2-0.24-0.55-0.24-1.07v-3.68h-0.85v-0.66
	h0.85v-1.05l0.89-0.4v1.45h1.02v0.66h-1.02v3.58c0,0.31,0.04,0.53,0.13,0.64c0.09,0.11,0.26,0.16,0.51,0.16
	c0.04,0,0.18-0.02,0.41-0.04V32.96"/>
<rect fill="none" width="150" height="61"/>
</svg>
