<?xml version="1.0" encoding="utf-8"?>
<!-- Generator: Adobe Illustrator 23.0.1, SVG Export Plug-In . SVG Version: 6.00 Build 0)  -->
<svg version="1.1" id="Layer_1" xmlns="http://www.w3.org/2000/svg" xmlns:xlink="http://www.w3.org/1999/xlink" x="0px" y="0px"
	 viewBox="0 0 7.086 7.087" style="enable-background:new 0 0 7.086 7.087;" xml:space="preserve">
<g>
	<path d="M5.952,4.83L4.665,3.543l1.287-1.287V4.83z M1.453,5.15L2.74,3.862l0.092,0.093c0.196,0.196,0.454,0.294,0.711,0.294
		s0.515-0.098,0.711-0.294l0.092-0.093L5.633,5.15H1.453z M1.134,2.256l1.287,1.287L1.134,4.83V2.256z M5.633,1.937L3.935,3.636
		c-0.216,0.216-0.568,0.216-0.784,0L1.453,1.937H5.633z M3.543,0C1.586,0,0,1.586,0,3.543s1.586,3.544,3.543,3.544
		S7.086,5.5,7.086,3.543S5.5,0,3.543,0"/>
</g>
</svg>
