<?xml version="1.0" encoding="utf-8"?>
<!-- Generator: Adobe Illustrator 23.0.1, SVG Export Plug-In . SVG Version: 6.00 Build 0)  -->
<svg version="1.1" id="Layer_1" xmlns="http://www.w3.org/2000/svg" xmlns:xlink="http://www.w3.org/1999/xlink" x="0px" y="0px"
	 viewBox="0 0 7.087 7.091" style="enable-background:new 0 0 7.087 7.091;" xml:space="preserve">
<g>
	<path d="M6.739,2.307c-0.115,0.583-0.415,1.231-0.875,1.87c0.491,0.146,0.92,0.121,1.184-0.106c0.089-0.6,0.026-1.217-0.192-1.79
		C6.818,2.293,6.78,2.303,6.739,2.307"/>
	<path d="M4.919,6.816C4.736,6.795,4.545,6.757,4.346,6.697C4.051,6.609,3.751,6.481,3.453,6.32C2.977,6.571,2.513,6.727,2.09,6.779
		C2.987,7.181,4.015,7.195,4.919,6.816"/>
	<path d="M6.648,1.833C6.491,1.548,6.294,1.279,6.053,1.038C5.812,0.797,5.544,0.601,5.259,0.444
		c-0.013,0.21,0.125,0.57,0.471,0.917c0.213,0.212,0.463,0.373,0.688,0.44C6.504,1.827,6.583,1.837,6.648,1.833"/>
	<path d="M3.019,0.043C2.801,0.296,2.762,0.712,2.913,1.227c0.639-0.46,1.286-0.759,1.869-0.875c0.005-0.04,0.014-0.08,0.025-0.118
		C4.401,0.08,3.973,0,3.544,0C3.368,0,3.193,0.017,3.019,0.043"/>
	<path d="M5.389,1.702C5.112,1.425,4.923,1.12,4.834,0.835C4.303,0.951,3.69,1.249,3.092,1.695C3.307,2.153,3.64,2.616,4.057,3.034
		c0.425,0.424,0.893,0.752,1.34,0.963c0.447-0.599,0.744-1.212,0.86-1.743C5.961,2.161,5.654,1.967,5.389,1.702"/>
	<path d="M1.925,5.166C1.592,4.833,1.308,4.484,1.07,4.132C0.701,4.945,0.656,5.677,1.035,6.056C1.414,6.435,2.147,6.389,2.961,6.02
		C2.603,5.779,2.252,5.493,1.925,5.166"/>
	<path d="M4.747,4.75c0.119-0.119,0.232-0.241,0.339-0.365c-0.462-0.233-0.933-0.573-1.371-1.01
		C3.278,2.937,2.939,2.466,2.706,2.004C2.582,2.111,2.46,2.224,2.34,2.343C1.928,2.755,1.587,3.198,1.329,3.634
		c0.245,0.406,0.559,0.812,0.937,1.19C2.64,5.198,3.044,5.515,3.453,5.763C3.89,5.504,4.334,5.163,4.747,4.75"/>
	<path d="M1.999,2.002c0.166-0.166,0.336-0.316,0.507-0.46C2.331,1.044,2.291,0.575,2.404,0.191C1.903,0.36,1.433,0.64,1.035,1.038
		c-0.422,0.422-0.376,1.23,0.03,2.104C1.32,2.756,1.631,2.37,1.999,2.002"/>
	<path d="M6.433,4.751c-0.274,0-0.573-0.061-0.882-0.17c-0.144,0.173-0.295,0.344-0.462,0.51C4.72,5.46,4.333,5.773,3.946,6.028
		c0.181,0.084,0.361,0.153,0.538,0.206C5.175,6.44,5.732,6.377,6.053,6.056c0.4-0.4,0.68-0.872,0.849-1.374
		C6.756,4.725,6.6,4.751,6.433,4.751"/>
	<path d="M0.77,3.642c-0.276-0.509-0.444-1.01-0.496-1.468C-0.104,3.078-0.09,4.106,0.312,5.002C0.364,4.58,0.52,4.117,0.77,3.642"
		/>
</g>
</svg>
