<?xml version="1.0" encoding="utf-8"?>
<!-- Generator: Adobe Illustrator 22.1.0, SVG Export Plug-In . SVG Version: 6.00 Build 0)  -->
<svg version="1.1" id="Layer_1" xmlns="http://www.w3.org/2000/svg" xmlns:xlink="http://www.w3.org/1999/xlink" x="0px" y="0px"
	 viewBox="0 0 60 180" style="enable-background:new 0 0 60 180;" xml:space="preserve">
<style type="text/css">
	.st0{fill:#D24600;}
	.st1{fill:#FFFFFF;}
</style>
<rect x="0" y="0" class="st0" width="60" height="180"/>
<g>
	<path class="st1" d="M8.5,126.2c0,5.8,3.1,10.9,7.6,13.8c-4.6,2.9-7.6,8-7.6,13.8c0,9,7.3,16.2,16.2,16.2H50v-5H24.8
		c-6.2,0-11.2-5.1-11.2-11.2s5-11.2,11.2-11.2H50v-5H24.8c-6.2,0-11.2-5.1-11.2-11.2s5-11.2,11.2-11.2H50v-5H24.8
		C15.8,110,8.5,117.3,8.5,126.2"/>
	<rect y="97.5" class="st1" width="10" height="5"/>
	<polygon class="st1" points="10,10 10,50 15,50 15,32.5 50,32.5 50,27.5 15,27.5 15,10 	"/>
	<path class="st1" d="M46.5,70c0,9.1-7.4,16.5-16.5,16.5S13.5,79.1,13.5,70c0-4.1,1.5-8,4.2-11L14,55.6c-3.6,4-5.5,9.1-5.5,14.4
		c0,11.8,9.6,21.5,21.5,21.5S51.5,81.8,51.5,70c0-5.3-2-10.4-5.5-14.4L42.3,59C45,62,46.5,65.9,46.5,70"/>
</g>
</svg>
