<?xml version="1.0" encoding="utf-8"?>
<!-- Generator: Adobe Illustrator 22.1.0, SVG Export Plug-In . SVG Version: 6.00 Build 0)  -->
<svg version="1.1" id="Layer_1" xmlns="http://www.w3.org/2000/svg" xmlns:xlink="http://www.w3.org/1999/xlink" x="0px" y="0px"
	 viewBox="0 0 200 100" style="enable-background:new 0 0 200 100;" xml:space="preserve">
<style type="text/css">
	.st0{fill:none;}
	.st1{fill:#FFFFFF;}
</style>
<rect y="0" class="st0" width="200" height="100"/>
<path class="st1" d="M80.52,92.67c39.62,0,61.29-32.83,61.29-61.29c0-0.93-0.02-1.86-0.06-2.79c4.21-3.04,7.86-6.83,10.75-11.15
	c-3.86,1.71-8.01,2.87-12.37,3.39c4.45-2.67,7.86-6.89,9.47-11.92c-4.16,2.47-8.77,4.26-13.68,5.23c-3.93-4.19-9.53-6.81-15.72-6.81
	c-11.9,0-21.55,9.65-21.55,21.54c0,1.69,0.19,3.33,0.56,4.91c-17.9-0.9-33.78-9.47-44.4-22.51c-1.85,3.18-2.92,6.88-2.92,10.83
	c0,7.47,3.8,14.07,9.59,17.93c-3.53-0.11-6.85-1.08-9.76-2.69c-0.01,0.09-0.01,0.18-0.01,0.27c0,10.43,7.43,19.14,17.28,21.12
	c-1.81,0.49-3.71,0.76-5.68,0.76c-1.39,0-2.74-0.14-4.05-0.39C62,67.66,69.95,73.89,79.38,74.06c-7.37,5.78-16.66,9.22-26.76,9.22
	c-1.74,0-3.45-0.1-5.14-0.3C57.03,89.1,68.35,92.67,80.52,92.67"/>
</svg>
