<?xml version="1.0" encoding="utf-8"?>
<!-- Generator: Adobe Illustrator 22.1.0, SVG Export Plug-In . SVG Version: 6.00 Build 0)  -->
<svg version="1.1" id="Layer_1" xmlns="http://www.w3.org/2000/svg" xmlns:xlink="http://www.w3.org/1999/xlink" x="0px" y="0px"
	 viewBox="0 0 200 100" style="enable-background:new 0 0 200 100;" xml:space="preserve">
<style type="text/css">
	.st0{fill:#FFFFFF;}
	.st1{fill:none;}
</style>
<g>
	<g>
		<path class="st0" d="M142.6,0H57.38c-4.07,0-7.37,3.23-7.37,7.21v85.57c0,3.98,3.3,7.22,7.37,7.22h85.22c4.08,0,7.4-3.23,7.4-7.22
			V7.21C149.99,3.23,146.68,0,142.6,0z M79.67,85.21H64.82V37.49h14.85V85.21z M72.24,30.97c-4.76,0-8.61-3.85-8.61-8.6
			s3.85-8.6,8.61-8.6c4.74,0,8.59,3.85,8.59,8.6S76.99,30.97,72.24,30.97z M135.21,85.21h-14.83V62c0-5.53-0.1-12.65-7.71-12.65
			c-7.72,0-8.89,6.03-8.89,12.26v23.61H88.96V37.49h14.21v6.52h0.21c1.98-3.75,6.81-7.71,14.03-7.71c15.02,0,17.8,9.88,17.8,22.73
			C135.21,59.03,135.21,85.21,135.21,85.21z"/>
	</g>
	<g>
		<path class="st0" d="M170.35,77.11c2.1-0.26,3.21-1.42,3.21-3.36c0-2.38-1.44-3.53-4.4-3.53h-4.76v12.5h1.8v-5.44h2.21l0.05,0.07
			l3.43,5.38h1.92l-3.68-5.57L170.35,77.11z M168.27,75.86h-2.08v-4.23h2.64c1.37,0,2.93,0.23,2.93,2.01
			C171.76,75.69,170.18,75.86,168.27,75.86z"/>
		<path class="st0" d="M168.48,64.65c-6.64,0-11.84,5.2-11.84,11.82c0,6.64,5.2,11.83,11.84,11.83s11.83-5.19,11.83-11.83
			C180.3,69.85,175.11,64.65,168.48,64.65z M168.48,86.76c-5.66,0-10.1-4.47-10.1-10.28c0-5.79,4.43-10.27,10.1-10.27
			c5.66,0,10.1,4.48,10.1,10.27C178.58,82.29,174.14,86.76,168.48,86.76z"/>
	</g>
</g>
<rect y="0" class="st1" width="200" height="100"/>
</svg>
