<?xml version="1.0" encoding="utf-8"?>
<!-- Generator: Adobe Illustrator 22.1.0, SVG Export Plug-In . SVG Version: 6.00 Build 0)  -->
<svg version="1.1" id="Layer_1" xmlns="http://www.w3.org/2000/svg" xmlns:xlink="http://www.w3.org/1999/xlink" x="0px" y="0px"
	 viewBox="0 0 200 100" style="enable-background:new 0 0 200 100;" xml:space="preserve">
<style type="text/css">
	.st0{fill:#D24600;}
	.st1{fill:none;}
</style>
<g>
	<path class="st0" d="M144.48,0H55.52C52.47,0,50,2.47,50,5.52v88.96c0,3.05,2.47,5.52,5.52,5.52h47.9V61.33H90.43V46.19h12.99
		V35.05c0-12.92,7.89-19.95,19.41-19.95c5.52,0,10.26,0.41,11.64,0.59v13.5l-7.95,0c-6.27,0-7.48,2.98-7.48,7.35v9.64h14.99
		l-1.95,15.14h-13.04V100h25.44c3.05,0,5.52-2.47,5.52-5.52V5.52C150,2.47,147.53,0,144.48,0z"/>
</g>
<rect class="st1" width="200" height="100"/>
</svg>
