<?xml version="1.0" encoding="utf-8"?>
<!-- Generator: Adobe Illustrator 23.0.1, SVG Export Plug-In . SVG Version: 6.00 Build 0)  -->
<svg version="1.1" xmlns="http://www.w3.org/2000/svg" xmlns:xlink="http://www.w3.org/1999/xlink" x="0px" y="0px"
	 viewBox="0 0 179 100" style="enable-background:new 0 0 179 100;" xml:space="preserve">
<style type="text/css">
	.st0{fill:#FFFFFF;}
	.st1{fill:#F5CE00;}
	.st2{fill:#ED1C24;}
</style>
<g id="BoundingBox">
	<rect class="st0" width="179" height="100"/>
</g>
<g id="Logo">
	<polygon class="st1" points="48,60 49.5,60 49.5,80 46,80 46,60 	"/>
	<polygon class="st2" points="48,39.9 49.5,39.9 49.5,60 46,60 46,39.9 	"/>
	<g>
		<path d="M36.892,26.991c1.023,1.619,1.825,1.592,3.035,1.592c-1.001-0.768-1.664-1.75-1.979-2.252l-1.87-2.992
			c-0.183-0.924-0.661-1.788-1.376-2.431c0.24-0.091,0.441-0.187,0.561-0.278c-1.221,0-2.431-0.62-3.097-0.62
			c-0.428,0-0.704,0.256-0.704,0.594c0.028,0.376,0.415,0.76,1.132,0.76c0.163,0,0.37-0.021,0.598-0.059
			c0.388,0.541,0.701,1.03,0.701,1.727c0,1.31-1.566,2.331-3.147,2.331c-0.089,0-0.174-0.003-0.264-0.01
			c-0.144-0.324-0.62-0.87-0.62-1.49c0-1.041,0.679-1.891,0.679-2.922c0-0.641-0.312-1.037-0.433-1.202
			c0.194-0.18,0.407-0.402,0.456-0.553c-0.113,0.048-0.246,0.055-0.442,0.055c-0.758,0-1.376-0.198-1.978-0.198
			c-0.343,0-0.436,0.106-0.436,0.207c0,0.037,0.006,0.075,0.016,0.093c-0.128-0.051-0.248-0.083-0.392-0.11
			c-0.177-0.034-0.369-0.051-0.573-0.051c-0.732,0-0.992,0.307-0.992,0.57c0,0.223,0.175,0.629,0.374,0.938
			c0.286-0.143,0.628-0.241,0.785-0.241c0.388,0,0.734,0.37,0.917,0.809c-0.261,0.031-0.312,0.043-0.576,0.043
			c-0.712,0-1.197-0.255-1.297-0.255c-0.01,0-0.029,0.005-0.029,0.021c0,0.1,0.202,0.364,0.601,0.51
			c0.524,0.192,1.311,0.272,1.442,0.293c0,0.023-0.133,0.271-0.282,0.319c-0.032,0.01-0.056,0.011-0.093,0.004
			c-0.548-0.108-0.701-0.154-1.396-0.419c-0.021-0.008-0.034,0.005-0.034,0.028c0,0.275,0.712,0.882,1.35,1.114
			c-0.533,0.68-1.198,1.376-1.512,2.437c-0.089,0.007-0.175,0.01-0.264,0.01c-1.581,0-3.148-1.021-3.148-2.331
			c0-0.698,0.314-1.186,0.702-1.727c0.228,0.038,0.435,0.059,0.598,0.059c0.717,0,1.105-0.384,1.133-0.76
			c0-0.338-0.275-0.594-0.705-0.594c-0.666,0-1.875,0.62-3.097,0.62c0.121,0.091,0.321,0.187,0.561,0.278
			c-0.715,0.643-1.193,1.506-1.376,2.431l-1.87,2.992c-0.315,0.502-0.979,1.484-1.98,2.252c1.21,0,2.012,0.027,3.036-1.592
			l0.958-1.534c0.071,0.199,0.159,0.393,0.261,0.583l-1.907,3.051c-0.317,0.506-0.975,1.481-1.98,2.252
			c1.21,0,2.012,0.028,3.036-1.59l1.642-2.628c0.123,0.131,0.252,0.259,0.388,0.381l-2.316,3.708
			c-0.318,0.507-0.972,1.479-1.98,2.25c1.21,0,2.012,0.029,3.036-1.59l2.258-3.615c0.149,0.094,0.301,0.185,0.458,0.271l-2.756,4.41
			c-0.318,0.508-0.972,1.477-1.979,2.25c1.21,0,2.012,0.028,3.036-1.59l2.838-4.543c0.168,0.065,0.338,0.126,0.512,0.182
			l-3.207,5.133c-0.313,0.5-0.983,1.486-1.979,2.25c1.209,0,2.012,0.027,3.035-1.59l3.418-5.471
			c0.035,0.006,0.069,0.012,0.103,0.019c0.093,0.296,0.158,0.571,0.158,0.847c0,1.719-1.128,3.237-2.482,4.409
			c0.086,0.038,0.237,0.051,0.377,0.051c0.279,0,0.46-0.015,0.586-0.037c-0.314,0.713-0.987,1.634-1.328,2.11
			c-0.443-0.08-1.088-0.143-1.51-0.143c-0.442,0-0.492,0.259-0.492,0.489c0,0.401,0.188,0.721,0.406,0.899
			c0.082-0.205,0.247-0.479,1.063-0.479c0.016,0,0.044,0.002,0.082,0.005c-0.239,0.266-0.986,0.869-0.986,1.355
			c0,0.322,0.354,0.805,0.819,0.805c-0.028-0.103-0.024-0.199-0.024-0.271c0-0.394,0.349-0.855,0.644-1.177
			c-0.009,0.096-0.004,0.086-0.004,0.197c0,0.932,0.084,1.359,0.675,1.359c0.29,0,0.49-0.159,0.559-0.207
			c-0.384-0.354-0.404-0.631-0.404-1.153c0.001-0.136,0.001-0.268,0.003-0.452c0.002-0.119,0-0.277-0.02-0.392
			c0.212-0.029,0.297-0.029,0.46-0.029c0,0,0.84-0.066,1.042,0.37c0.228-0.209,0.559-0.504,0.559-0.829
			c0-0.215-0.102-0.458-0.535-0.458c-0.164,0-0.679,0.101-1.11,0.101c0.116-0.258,0.631-1.012,1.078-1.559
			c0.067,0.212,0.173,0.441,0.407,0.629c0.032-0.352,0.239-1.465,0.789-2.115c0.064,0.439,0.15,0.891,0.15,1.842
			c0,2.313-0.556,4.022-1.737,4.349c0.154,0.268,0.479,0.508,0.816,0.508c0.432,0,0.667-0.488,0.907-0.949
			c0.125,0.34,0.47,1.174,0.816,1.174s0.691-0.834,0.816-1.174c0.24,0.461,0.475,0.949,0.907,0.949c0.337,0,0.663-0.24,0.816-0.508
			c-1.181-0.326-1.738-2.035-1.738-4.349c0-0.951,0.086-1.402,0.15-1.842c0.55,0.65,0.757,1.764,0.789,2.115
			c0.234-0.188,0.34-0.417,0.408-0.629c0.446,0.547,0.962,1.301,1.078,1.559c-0.432,0-0.947-0.101-1.11-0.101
			c-0.432,0-0.534,0.243-0.534,0.458c0,0.325,0.331,0.62,0.559,0.829c0.202-0.437,1.042-0.37,1.042-0.37c0.163,0,0.248,0,0.46,0.029
			c-0.02,0.114-0.021,0.273-0.02,0.392c0.002,0.184,0.002,0.316,0.003,0.452c0,0.523-0.02,0.8-0.403,1.153
			C31.542,39.841,31.742,40,32.032,40c0.591,0,0.676-0.428,0.676-1.359c0-0.111,0.003-0.101-0.004-0.197
			c0.295,0.321,0.644,0.782,0.644,1.177c0,0.071,0.004,0.167-0.024,0.271c0.466,0,0.819-0.482,0.819-0.805
			c0-0.486-0.747-1.09-0.986-1.355c0.039-0.003,0.066-0.005,0.082-0.005c0.817,0,0.981,0.274,1.063,0.479
			c0.218-0.178,0.406-0.497,0.406-0.899c0-0.23-0.049-0.489-0.491-0.489c-0.422,0-1.067,0.062-1.511,0.143
			c-0.34-0.477-1.013-1.397-1.328-2.11c0.126,0.022,0.308,0.037,0.586,0.037c0.14,0,0.29-0.013,0.377-0.051
			c-1.354-1.172-2.482-2.69-2.482-4.409c0-0.275,0.065-0.551,0.158-0.847c0.034-0.007,0.069-0.013,0.104-0.019l3.418,5.471
			c1.023,1.617,1.826,1.59,3.035,1.59c-0.996-0.764-1.665-1.75-1.978-2.25l-3.208-5.133c0.174-0.056,0.344-0.117,0.512-0.182
			l2.838,4.543c1.023,1.618,1.825,1.59,3.036,1.59c-1.007-0.773-1.661-1.742-1.979-2.25l-2.756-4.41
			c0.157-0.086,0.31-0.178,0.457-0.271l2.259,3.615c1.024,1.619,1.825,1.59,3.035,1.59c-1.006-0.771-1.66-1.743-1.979-2.25
			l-2.316-3.708c0.136-0.122,0.266-0.25,0.388-0.381l1.642,2.628c1.024,1.618,1.825,1.59,3.036,1.59
			c-1.006-0.771-1.662-1.746-1.98-2.252l-1.907-3.051c0.102-0.19,0.19-0.384,0.261-0.583L36.892,26.991z M21.586,23.478
			c0-1.14,0.829-2.042,1.121-2.295c0.07,0.017,0.14,0.034,0.21,0.048c-0.31,0.378-0.857,1.013-0.857,1.853
			c0,1.667,1.782,3.116,3.8,3.116c-0.013,0.143-0.02,0.293-0.02,0.447c0,0.246,0.014,0.476,0.038,0.691
			C23.595,27.325,21.586,25.473,21.586,23.478z M24.678,37.151l-0.013,0.039h0.04c0.641,0,0.953-0.046,1.159-0.076
			c0.108-0.014,0.186-0.025,0.27-0.025c0.165,0,0.292,0.016,0.292,0.219c0,0.138-0.161,0.355-0.316,0.481
			c-0.236-0.223-0.563-0.267-1.043-0.267c-0.225,0-0.518,0.04-0.676,0.062l-0.025,0.003l-0.028,0.004l0.009,0.075
			c0.019,0.133,0.042,0.298,0.042,0.521l-0.003,0.202l-0.002,0.251c0,0.544,0.075,0.854,0.265,1.089
			c-0.049,0.019-0.129,0.033-0.181,0.033c-0.337,0-0.436-0.147-0.436-1.121c0-0.195-0.011-0.379-0.018-0.501l-0.009-0.181
			l-0.043,0.033c-0.502,0.383-1.019,1.066-1.05,1.578c-0.151-0.098-0.315-0.316-0.315-0.484c0-0.279,0.419-0.698,0.905-1.184
			l0.28-0.279l0.035-0.036l-0.092-0.022c-0.104-0.027-0.298-0.076-0.463-0.076c-0.545,0-0.886,0.103-1.097,0.332
			c-0.075-0.109-0.139-0.364-0.139-0.514c0-0.097,0.019-0.165,0.058-0.204c0.048-0.046,0.122-0.046,0.187-0.046h0.014
			c0.6,0,1.318,0.108,1.598,0.153l0.017,0.004l0.011-0.014c0.048-0.065,1.193-1.59,1.49-2.398c0.068-0.025,0.128-0.045,0.247-0.045
			c0.226,0,0.288,0.152,0.353,0.385C25.286,36.011,24.84,36.687,24.678,37.151z M30.852,34.757c0.12,0,0.178,0.02,0.247,0.045
			c0.297,0.809,1.442,2.333,1.49,2.398l0.011,0.014l0.017-0.004c0.28-0.045,0.998-0.153,1.598-0.153h0.013
			c0.065,0,0.139,0,0.187,0.046c0.039,0.039,0.058,0.107,0.058,0.204c0,0.15-0.063,0.404-0.139,0.514
			c-0.21-0.229-0.551-0.332-1.097-0.332c-0.165,0-0.358,0.049-0.463,0.076l-0.043,0.01l-0.049,0.013l0.316,0.315
			c0.486,0.485,0.906,0.904,0.906,1.184c0,0.168-0.164,0.387-0.315,0.484c-0.032-0.512-0.549-1.195-1.051-1.578l-0.043-0.032
			l-0.008,0.18c-0.007,0.122-0.018,0.306-0.018,0.501c0,0.974-0.099,1.121-0.436,1.121c-0.052,0-0.131-0.015-0.18-0.033
			c0.19-0.234,0.265-0.545,0.265-1.089l-0.003-0.251l-0.002-0.202c0-0.223,0.023-0.388,0.041-0.521l0.01-0.075l-0.053-0.007
			c-0.158-0.022-0.451-0.062-0.675-0.062c-0.48,0-0.807,0.044-1.043,0.267c-0.156-0.126-0.316-0.343-0.316-0.481
			c0-0.203,0.127-0.219,0.292-0.219c0.084,0,0.162,0.012,0.271,0.025c0.207,0.03,0.518,0.076,1.159,0.076h0.039l-0.012-0.039
			c-0.163-0.465-0.608-1.141-1.324-2.01C30.564,34.909,30.627,34.757,30.852,34.757z M28.202,21.456
			c-0.071-0.296-0.223-0.6-0.416-0.829c-0.176-0.207-0.467-0.454-0.858-0.454c-0.179,0-0.479,0.083-0.67,0.164
			c-0.072-0.129-0.211-0.443-0.211-0.584c0-0.145,0.246-0.292,0.714-0.292c1.032,0,1.649,0.467,1.649,1.249
			C28.409,20.984,28.3,21.235,28.202,21.456z M28.665,20.44c-0.037-0.221-0.121-0.421-0.249-0.592
			c0.006-0.202,0.089-0.395,0.415-0.236c-0.176,0.18-0.04,0.499-0.04,0.499s0.36-0.167,0.286-0.404
			C29.61,19.833,29.226,20.55,28.665,20.44z M30.673,27.339c0.027-0.224,0.043-0.455,0.043-0.691c0-0.129,0.001-0.278-0.015-0.448
			c1.993-0.028,3.741-1.464,3.741-3.115c0-0.84-0.548-1.475-0.857-1.853c0.07-0.015,0.14-0.031,0.21-0.048
			c0.292,0.254,1.121,1.156,1.121,2.295C34.915,25.459,32.935,27.298,30.673,27.339z"/>
	</g>
	<polygon points="49.5,20 49.5,40 48,40 46,40 46,20 	"/>
</g>
<g id="Name">
	<path d="M60.43,20.61h-2.565v2.791h2.418v0.768h-2.418V28h-0.96v-8.17h3.526V20.61z"/>
	<path d="M65.051,25.277h-2.983v0.384c0,0.58,0.053,0.998,0.158,1.254c0.151,0.369,0.444,0.554,0.881,0.554
		c0.655,0,0.998-0.418,1.028-1.254h0.881c-0.053,1.266-0.689,1.898-1.91,1.898c-0.791,0-1.333-0.267-1.627-0.802
		c-0.218-0.399-0.328-1.043-0.328-1.932c0-1.01,0.094-1.733,0.282-2.17c0.294-0.685,0.874-1.028,1.74-1.028
		c0.814,0,1.356,0.301,1.627,0.904c0.166,0.377,0.249,1.021,0.249,1.932V25.277z M64.147,24.667c0-0.55-0.038-0.938-0.113-1.164
		c-0.136-0.452-0.426-0.678-0.87-0.678c-0.618,0-0.968,0.369-1.051,1.107c-0.03,0.256-0.045,0.501-0.045,0.735H64.147z"/>
	<path d="M70.227,28h-0.87l-0.011-0.655c-0.324,0.497-0.768,0.746-1.333,0.746c-0.731,0-1.232-0.328-1.503-0.983
		c-0.173-0.437-0.26-1.115-0.26-2.034c0-0.866,0.102-1.522,0.305-1.966c0.271-0.618,0.75-0.927,1.435-0.927
		c0.572,0,1.002,0.222,1.288,0.667V19.83h0.904v7.096C70.182,27.13,70.197,27.488,70.227,28z M69.311,25.209
		c0-0.776-0.057-1.33-0.17-1.661c-0.158-0.475-0.463-0.712-0.915-0.712c-0.445,0-0.746,0.249-0.904,0.746
		c-0.105,0.324-0.158,0.829-0.158,1.514c0,0.746,0.06,1.292,0.181,1.639c0.158,0.467,0.441,0.701,0.848,0.701
		c0.482,0,0.802-0.237,0.96-0.712C69.259,26.414,69.311,25.91,69.311,25.209z"/>
	<path d="M75.538,25.277h-2.983v0.384c0,0.58,0.053,0.998,0.158,1.254c0.151,0.369,0.445,0.554,0.881,0.554
		c0.655,0,0.998-0.418,1.028-1.254h0.881c-0.053,1.266-0.689,1.898-1.91,1.898c-0.791,0-1.333-0.267-1.627-0.802
		c-0.219-0.399-0.328-1.043-0.328-1.932c0-1.01,0.094-1.733,0.283-2.17c0.294-0.685,0.874-1.028,1.74-1.028
		c0.814,0,1.356,0.301,1.627,0.904c0.166,0.377,0.249,1.021,0.249,1.932V25.277z M74.634,24.667c0-0.55-0.038-0.938-0.113-1.164
		c-0.136-0.452-0.426-0.678-0.87-0.678c-0.618,0-0.968,0.369-1.051,1.107c-0.03,0.256-0.045,0.501-0.045,0.735H74.634z"/>
	<path d="M79.335,23.051c-0.09-0.015-0.154-0.023-0.192-0.023c-0.429,0-0.752,0.132-0.966,0.396
		c-0.215,0.264-0.322,0.614-0.322,1.051V28H76.95v-4.656c0-0.384-0.011-0.731-0.034-1.04h0.881v0.746
		c0.309-0.573,0.791-0.859,1.446-0.859C79.304,22.192,79.335,22.478,79.335,23.051z"/>
	<path d="M83.798,28h-0.87l-0.011-0.746c-0.384,0.558-0.893,0.836-1.526,0.836c-0.482,0-0.855-0.158-1.119-0.475
		c-0.233-0.301-0.35-0.701-0.35-1.198c0-0.806,0.309-1.348,0.927-1.627c0.407-0.188,1.077-0.286,2.011-0.294v-0.249
		c0-0.467-0.038-0.791-0.113-0.972c-0.12-0.301-0.377-0.452-0.768-0.452c-0.271,0-0.497,0.075-0.678,0.226
		c-0.181,0.151-0.271,0.362-0.271,0.633v0.057h-0.893v-0.057c0-0.52,0.188-0.908,0.565-1.164c0.324-0.226,0.761-0.339,1.311-0.339
		c0.655,0,1.111,0.158,1.367,0.475c0.241,0.286,0.362,0.761,0.362,1.424v2.102C83.742,26.866,83.76,27.473,83.798,28z M82.86,25.796
		v-0.678h-0.226c-1.19,0-1.785,0.407-1.785,1.22c0,0.731,0.279,1.096,0.836,1.096c0.422,0,0.735-0.181,0.938-0.542
		C82.781,26.606,82.86,26.241,82.86,25.796z"/>
	<path d="M86.295,28h-0.893v-8.17h0.446h0.446V28z"/>
	<path d="M94.375,20.61H91.81v2.791h2.418v0.768H91.81V28h-0.961v-8.17h3.526V20.61z"/>
	<path d="M99.336,25.118c0,1.04-0.117,1.774-0.35,2.204c-0.294,0.527-0.844,0.791-1.65,0.791c-0.821,0-1.371-0.264-1.65-0.791
		c-0.211-0.399-0.316-1.107-0.316-2.124c0-0.979,0.113-1.688,0.339-2.124c0.301-0.595,0.866-0.893,1.695-0.893
		c0.821,0,1.367,0.275,1.639,0.825C99.238,23.39,99.336,24.094,99.336,25.118z M98.409,25.729v-0.87
		c0-0.648-0.038-1.096-0.113-1.345c-0.143-0.46-0.448-0.689-0.915-0.689c-0.49,0-0.814,0.245-0.972,0.734
		c-0.083,0.256-0.124,0.697-0.124,1.322v0.814c0,0.55,0.045,0.942,0.136,1.175c0.158,0.399,0.467,0.599,0.927,0.599
		c0.444,0,0.746-0.192,0.904-0.576C98.356,26.636,98.409,26.249,98.409,25.729z"/>
	<path d="M103.166,23.051c-0.09-0.015-0.154-0.023-0.192-0.023c-0.429,0-0.752,0.132-0.966,0.396
		c-0.215,0.264-0.322,0.614-0.322,1.051V28h-0.904v-4.656c0-0.384-0.011-0.731-0.034-1.04h0.881v0.746
		c0.309-0.573,0.791-0.859,1.446-0.859C103.136,22.192,103.166,22.478,103.166,23.051z"/>
	<path d="M107.777,25.277h-2.983v0.384c0,0.58,0.053,0.998,0.158,1.254c0.151,0.369,0.444,0.554,0.881,0.554
		c0.655,0,0.998-0.418,1.028-1.254h0.881c-0.053,1.266-0.689,1.898-1.91,1.898c-0.791,0-1.333-0.267-1.627-0.802
		c-0.218-0.399-0.328-1.043-0.328-1.932c0-1.01,0.094-1.733,0.283-2.17c0.294-0.685,0.874-1.028,1.74-1.028
		c0.814,0,1.356,0.301,1.627,0.904c0.166,0.377,0.249,1.021,0.249,1.932V25.277z M106.873,24.667c0-0.55-0.038-0.938-0.113-1.164
		c-0.136-0.452-0.426-0.678-0.87-0.678c-0.618,0-0.968,0.369-1.051,1.107c-0.03,0.256-0.045,0.501-0.045,0.735H106.873z"/>
	<path d="M110.138,20.915h-0.983v-0.972h0.983V20.915z M110.093,28H109.2v-5.695h0.893V28z"/>
	<path d="M115.54,22.305c0,0.083-0.006,0.232-0.017,0.446c-0.011,0.215-0.017,0.382-0.017,0.503v4.983
		c0,0.693-0.162,1.198-0.486,1.514c-0.324,0.316-0.84,0.475-1.548,0.475c-1.175,0-1.77-0.55-1.785-1.65h0.949
		c0,0.693,0.294,1.04,0.881,1.04c0.459,0,0.765-0.166,0.915-0.497c0.105-0.219,0.158-0.58,0.158-1.085v-0.768
		c-0.316,0.444-0.757,0.667-1.322,0.667c-0.708,0-1.194-0.298-1.458-0.893c-0.173-0.392-0.26-1.002-0.26-1.831
		c0-0.919,0.094-1.605,0.283-2.057c0.271-0.648,0.753-0.972,1.446-0.972c0.633,0,1.089,0.264,1.367,0.791v-0.667H115.54z
		 M114.613,24.972c0-0.64-0.053-1.115-0.158-1.424c-0.166-0.467-0.475-0.701-0.927-0.701c-0.467,0-0.776,0.264-0.927,0.791
		c-0.09,0.316-0.136,0.84-0.136,1.571c0,0.655,0.045,1.122,0.136,1.401c0.143,0.467,0.433,0.701,0.87,0.701
		c0.512,0,0.851-0.282,1.017-0.847C114.572,26.169,114.613,25.672,114.613,24.972z"/>
	<path d="M120.998,28h-0.893v-3.639c0-0.49-0.034-0.825-0.102-1.006c-0.128-0.331-0.388-0.497-0.78-0.497
		c-0.384,0-0.682,0.188-0.893,0.565c-0.173,0.324-0.26,0.708-0.26,1.153V28h-0.893v-4.452c0-0.505-0.015-0.919-0.045-1.243h0.881
		v0.78c0.316-0.603,0.81-0.904,1.48-0.904c1.002,0,1.503,0.591,1.503,1.774V28z"/>
	<path d="M130.252,23.943c0,1.424-0.117,2.407-0.35,2.949c-0.362,0.836-1.077,1.254-2.147,1.254c-1.047,0-1.752-0.396-2.113-1.187
		c-0.166-0.369-0.271-0.859-0.316-1.469c-0.015-0.241-0.023-0.753-0.023-1.537c0-1.017,0.03-1.736,0.09-2.158
		c0.083-0.558,0.26-1.01,0.531-1.356c0.392-0.512,1.009-0.768,1.853-0.768c0.829,0,1.439,0.237,1.831,0.712
		c0.271,0.331,0.452,0.791,0.542,1.379C130.218,22.207,130.252,22.934,130.252,23.943z M129.247,23.887
		c0-1.062-0.041-1.801-0.124-2.215c-0.166-0.821-0.614-1.232-1.345-1.232c-0.776,0-1.239,0.471-1.39,1.413
		c-0.06,0.384-0.09,1.066-0.09,2.045c0,1.062,0.03,1.77,0.09,2.124c0.075,0.46,0.211,0.795,0.407,1.006
		c0.219,0.241,0.546,0.362,0.983,0.362c0.708,0,1.156-0.429,1.345-1.288C129.205,25.717,129.247,24.979,129.247,23.887z"/>
	<path d="M134.026,20.497c-0.068-0.007-0.185-0.011-0.35-0.011c-0.279,0-0.467,0.102-0.565,0.305c-0.06,0.143-0.09,0.373-0.09,0.689
		v0.825h0.972v0.655h-0.972V28h-0.893v-5.04h-0.836v-0.655h0.836v-0.622c0-0.618,0.075-1.058,0.226-1.322
		c0.211-0.392,0.618-0.588,1.22-0.588c0.158,0,0.309,0.007,0.452,0.023V20.497z"/>
	<path d="M137.337,20.497c-0.068-0.007-0.185-0.011-0.35-0.011c-0.279,0-0.467,0.102-0.565,0.305c-0.06,0.143-0.09,0.373-0.09,0.689
		v0.825h0.972v0.655h-0.972V28h-0.893v-5.04h-0.836v-0.655h0.836v-0.622c0-0.618,0.075-1.058,0.226-1.322
		c0.211-0.392,0.618-0.588,1.22-0.588c0.158,0,0.309,0.007,0.452,0.023V20.497z"/>
	<path d="M139.394,20.915h-0.983v-0.972h0.983V20.915z M139.349,28h-0.893v-5.695h0.893V28z"/>
	<path d="M144.535,26.226c0,1.258-0.591,1.887-1.774,1.887c-0.814,0-1.36-0.264-1.639-0.791c-0.211-0.399-0.316-1.092-0.316-2.079
		s0.094-1.688,0.283-2.102c0.286-0.64,0.851-0.961,1.695-0.961c0.648,0,1.107,0.151,1.379,0.452c0.249,0.286,0.373,0.75,0.373,1.39
		h-0.881c0-0.799-0.294-1.198-0.881-1.198c-0.467,0-0.772,0.252-0.915,0.757c-0.083,0.294-0.124,0.817-0.124,1.571
		c0,0.859,0.064,1.45,0.192,1.774c0.143,0.362,0.414,0.542,0.814,0.542c0.354,0,0.603-0.124,0.746-0.373
		c0.105-0.188,0.162-0.478,0.169-0.87H144.535z"/>
	<path d="M149.462,25.277h-2.983v0.384c0,0.58,0.053,0.998,0.158,1.254c0.151,0.369,0.445,0.554,0.881,0.554
		c0.655,0,0.998-0.418,1.028-1.254h0.881c-0.053,1.266-0.689,1.898-1.91,1.898c-0.791,0-1.333-0.267-1.627-0.802
		c-0.218-0.399-0.328-1.043-0.328-1.932c0-1.01,0.094-1.733,0.283-2.17c0.294-0.685,0.874-1.028,1.74-1.028
		c0.814,0,1.356,0.301,1.627,0.904c0.166,0.377,0.249,1.021,0.249,1.932V25.277z M148.558,24.667c0-0.55-0.038-0.938-0.113-1.164
		c-0.136-0.452-0.426-0.678-0.87-0.678c-0.618,0-0.968,0.369-1.051,1.107c-0.03,0.256-0.045,0.501-0.045,0.735H148.558z"/>
</g>
</svg>
